<?xml version="1.0" standalone="no"?>
<!DOCTYPE svg PUBLIC "-//W3C//DTD SVG 20010904//EN"
 "http://www.w3.org/TR/2001/REC-SVG-20010904/DTD/svg10.dtd">
<svg version="1.0" xmlns="http://www.w3.org/2000/svg"
 width="1024.000000pt" height="1024.000000pt" viewBox="0 0 1024.000000 1024.000000"
 preserveAspectRatio="xMidYMid meet">

<g transform="translate(0.000000,1024.000000) scale(0.100000,-0.100000)"
fill="#000000" stroke="none">
<path d="M2880 9265 c-587 -87 -1117 -470 -1373 -990 -57 -115 -92 -213 -125
-345 l-26 -105 -6 -1310 c-3 -720 -5 -1776 -5 -2345 l0 -1035 23 -99 c147
-639 577 -1115 1188 -1315 234 -77 48 -72 2689 -69 2637 4 2382 -3 2615 74
362 120 673 352 898 669 81 113 184 323 232 471 78 239 73 55 66 2609 -6 2523
-1 2348 -72 2574 -137 440 -467 817 -910 1039 -177 89 -426 162 -616 182 -157
16 -4468 12 -4578 -5z m4670 -18 c47 -9 99 -20 115 -26 30 -11 30 -11 -5 -5
-19 3 -51 8 -70 10 -19 2 -51 7 -70 10 -19 3 -75 7 -124 10 -66 4 -86 3 -81
-6 4 -7 21 -10 44 -7 20 3 27 3 17 0 -15 -4 -16 -7 -5 -14 8 -5 -2 -5 -26 -1
-64 11 -857 8 -1005 -4 -74 -7 -182 -9 -240 -5 l-105 6 85 6 c47 3 -201 6
-550 6 -349 0 -621 -3 -605 -7 21 -5 5 -7 -50 -7 -60 0 -69 2 -35 6 32 4 8 7
-80 12 -69 3 271 5 755 5 484 0 844 -3 800 -6 -79 -6 -79 -6 -19 -8 77 -2 194
9 171 17 -9 3 171 5 400 3 230 -2 414 0 411 3 -7 7 -4149 7 -4156 0 -3 -3 249
-6 559 -7 l564 -3 -400 -5 -400 -6 440 0 c242 1 420 -2 395 -5 -25 -3 11 -5
80 -3 102 3 115 1 70 -6 -30 -5 -101 -9 -156 -8 -56 0 -107 -3 -114 -7 -9 -5
-11 -4 -6 3 5 9 -74 12 -313 12 -207 0 -321 -4 -321 -10 0 -16 -317 -13 -324
3 -3 6 -4 0 -2 -15 l3 -28 -135 1 -136 0 29 24 28 25 -33 6 c-26 6 -29 9 -16
16 9 5 22 6 29 2 8 -5 9 -4 2 4 -11 12 -65 5 -65 -9 0 -5 15 -13 33 -18 l32
-9 -37 -1 c-20 -1 -40 4 -43 9 -3 6 -12 10 -18 10 -7 0 -6 -4 3 -10 8 -5 11
-10 5 -11 -5 0 -18 -2 -28 -4 -10 -2 -14 1 -11 7 4 6 1 8 -7 6 -8 -3 -13 -12
-11 -19 2 -8 -4 -6 -16 6 -13 14 -16 22 -8 27 19 13 -2 9 -67 -12 -34 -11 -86
-28 -116 -38 l-54 -17 34 -6 34 -6 -33 -2 c-22 -1 -31 -5 -26 -13 4 -7 3 -8
-5 -4 -6 4 -9 12 -6 17 15 24 -74 -4 -122 -39 -18 -13 -39 -20 -50 -16 -17 5
-16 4 1 -10 11 -9 15 -16 9 -16 -7 0 -15 5 -18 10 -4 7 -13 6 -27 -1 -17 -9
-18 -13 -7 -20 16 -10 8 -12 -15 -3 -13 5 -13 8 -3 19 21 20 74 45 81 37 4 -3
10 -1 14 5 8 13 123 65 129 59 3 -3 24 4 47 14 91 38 268 77 386 84 30 1 1052
2 2270 1 1981 -2 2224 -3 2300 -18z m-2945 -12 c20 -7 -271 -3 -320 4 -27 4
31 5 130 3 99 -2 185 -5 190 -7z m1618 8 c-13 -2 -33 -2 -45 0 -13 2 -3 4 22
4 25 0 35 -2 23 -4z m1303 -26 c-6 -5 2 -6 19 -2 16 4 26 3 22 -1 -10 -10 -87
-12 -87 -2 0 4 -19 9 -42 11 -24 2 -11 3 28 3 41 -1 67 -5 60 -9z m-2383 -4
c-35 -2 -91 -2 -125 0 -35 2 -7 3 62 3 69 0 97 -1 63 -3z m350 0 c-40 -2 -106
-2 -145 0 -40 1 -8 3 72 3 80 0 112 -2 73 -3z m230 0 c-24 -2 -62 -2 -85 0
-24 2 -5 4 42 4 47 0 66 -2 43 -4z m180 0 c-13 -2 -33 -2 -45 0 -13 2 -3 4 22
4 25 0 35 -2 23 -4z m860 0 c-24 -2 -62 -2 -85 0 -24 2 -5 4 42 4 47 0 66 -2
43 -4z m528 0 c33 -7 33 -7 9 -14 -38 -11 -180 -10 -180 1 0 5 -37 11 -82 13
-50 2 -23 4 68 5 83 1 167 -1 185 -5z m-4506 -13 c3 -5 -1 -10 -9 -10 -8 0
-18 5 -21 10 -3 6 1 10 9 10 8 0 18 -4 21 -10z m3692 4 c-3 -3 -12 -4 -19 -1
-8 3 -5 6 6 6 11 1 17 -2 13 -5z m981 -1 c-10 -2 -28 -2 -40 0 -13 2 -5 4 17
4 22 1 32 -1 23 -4z m269 1 c-3 -3 -12 -4 -19 -1 -8 3 -5 6 6 6 11 1 17 -2 13
-5z m-1327 -14 c0 -5 -6 -10 -14 -10 -8 0 -18 5 -21 10 -3 6 3 10 14 10 12 0
21 -4 21 -10z m1400 -4 c0 -2 -9 -6 -20 -9 -11 -3 -18 -1 -14 4 5 9 34 13 34
5z m-4937 -23 c-7 -2 -21 -2 -30 0 -10 3 -4 5 12 5 17 0 24 -2 18 -5z m4980 0
c-7 -2 -19 -2 -25 0 -7 3 -2 5 12 5 14 0 19 -2 13 -5z m44 -9 c-3 -3 -12 -4
-19 -1 -8 3 -5 6 6 6 11 1 17 -2 13 -5z m40 -20 c-3 -3 -12 -4 -19 -1 -8 3 -5
6 6 6 11 1 17 -2 13 -5z m-5390 -10 c-3 -3 -12 -4 -19 -1 -8 3 -5 6 6 6 11 1
17 -2 13 -5z m5503 -34 c0 -5 -8 -14 -18 -19 -14 -7 -19 -6 -19 4 0 7 7 11 15
7 10 -3 13 -1 8 6 -4 7 -2 12 3 12 6 0 11 -4 11 -10z m41 -27 c13 -17 13 -17
-6 -3 -11 8 -22 16 -24 17 -2 2 0 3 6 3 6 0 17 -8 24 -17z m-5781 -23 c0 -5
-7 -10 -16 -10 -8 0 -12 5 -9 10 3 6 10 10 16 10 5 0 9 -4 9 -10z m5900 -33
c0 -2 -8 -3 -18 -3 -10 0 -19 6 -19 13 0 8 6 9 19 2 10 -5 18 -11 18 -12z
m-5985 -7 c-3 -5 -12 -10 -18 -10 -7 0 -6 4 3 10 19 12 23 12 15 0z m-125 -73
c0 -2 -10 -12 -22 -23 l-23 -19 19 23 c18 21 26 27 26 19z m3308 -118 c464
-50 859 -263 1160 -624 228 -272 343 -546 373 -885 11 -128 7 -455 -5 -468
-12 -11 -15 7 -23 128 -4 69 -9 116 -11 105 -2 -11 -8 -24 -12 -29 -5 -5 -7 0
-4 11 3 11 -1 25 -9 31 -12 10 -15 -5 -21 -100 -4 -62 -9 -115 -12 -117 -15
-15 -25 32 -33 153 -11 187 -31 205 -32 31 -1 -115 -13 -227 -18 -170 -2 18
-4 17 -13 -5 -10 -22 -12 -23 -16 -6 -3 15 -6 16 -13 5 -7 -11 -9 -10 -9 5 0
19 0 19 -21 0 -16 -14 -23 -16 -26 -6 -3 6 -9 10 -14 6 -5 -3 -9 2 -9 10 0 9
-4 16 -10 16 -5 0 -10 -9 -10 -20 0 -42 -18 -17 -22 29 -2 41 0 51 15 55 20 5
24 55 5 74 -6 6 -14 53 -18 104 l-6 93 -8 -80 c-4 -44 -11 -90 -17 -103 -12
-31 -11 -66 2 -79 9 -9 9 -20 0 -44 -6 -17 -11 -43 -11 -57 0 -14 -2 -23 -5
-20 -5 5 -27 103 -28 130 -1 9 -5 14 -9 12 -4 -3 -9 1 -10 8 -3 26 -4 34 -15
68 -6 19 -14 107 -16 195 -5 150 -15 211 -38 226 -5 3 -12 31 -14 62 -2 31
-11 71 -19 89 -8 18 -26 60 -41 93 -20 47 -28 56 -36 45 -8 -12 -9 -10 -4 8 4
13 2 22 -4 22 -6 0 -11 6 -11 14 0 10 -7 12 -22 8 -14 -3 -19 -2 -14 6 4 7 2
12 -3 12 -6 0 -24 20 -39 45 -47 75 -187 214 -282 279 -338 233 -787 286
-1190 140 -83 -29 -161 -66 -181 -86 -8 -7 -31 -22 -52 -33 -21 -11 -46 -27
-56 -36 -10 -9 -35 -28 -57 -41 -65 -42 -169 -151 -243 -256 -12 -18 -26 -30
-31 -27 -11 7 -79 -126 -108 -210 -52 -147 -83 -308 -86 -447 -1 -40 -5 -79
-9 -86 -5 -7 -8 -22 -7 -35 1 -12 1 -33 0 -47 -1 -23 -2 -23 -10 -5 -5 11 -9
34 -11 50 -2 34 -13 -35 -25 -150 -7 -69 -7 -69 -20 -40 -7 17 -13 40 -14 51
0 12 -7 24 -15 28 -12 4 -15 -3 -15 -33 0 -45 -8 -71 -21 -71 -5 0 -9 9 -9 20
0 17 -3 19 -19 10 -11 -5 -26 -7 -34 -4 -8 3 -18 0 -22 -6 -5 -8 -11 -8 -22 2
-12 10 -17 9 -26 -7 -10 -19 -11 -19 -18 5 -13 46 -9 82 11 107 24 31 25 46 3
68 -9 10 -19 42 -23 78 -7 61 -8 60 -14 -16 -2 -21 -8 -43 -14 -49 -16 -16
-15 -73 2 -87 11 -9 11 -22 4 -59 -6 -26 -14 -51 -18 -55 -9 -10 -30 79 -30
128 0 19 -4 35 -8 35 -5 0 -10 23 -11 52 -2 72 -11 74 -12 2 -1 -52 -3 -55 -9
-24 l-7 35 -2 -45 c-3 -98 -14 -210 -21 -210 -16 0 -23 295 -12 450 13 173 29
261 74 394 135 404 498 805 895 987 190 87 365 135 598 162 68 9 262 6 353 -4z
m1212 -67 c12 -10 24 -29 25 -43 2 -13 6 -32 10 -41 5 -12 -2 -27 -23 -48 -52
-52 -122 -34 -141 36 -13 45 0 78 36 98 38 20 66 20 93 -2z m-2712 -8 c33 -23
31 -92 -4 -128 -57 -56 -144 -15 -144 69 0 60 93 98 148 59z m-469 -65 c67
-14 91 -39 91 -94 0 -24 -4 -47 -10 -50 -15 -10 -12 -25 6 -25 8 0 29 -13 45
-29 66 -66 15 -150 -93 -155 -12 0 -18 -8 -18 -22 0 -40 -34 -62 -105 -67 -23
-2 -32 4 -43 27 -8 16 -17 24 -21 18 -3 -5 -20 -13 -38 -16 -25 -6 -36 -3 -52
13 -25 25 -26 39 -5 69 14 21 14 22 -9 22 -28 0 -73 45 -82 83 -10 37 12 111
41 142 16 17 34 25 56 25 26 0 37 6 50 30 29 51 61 56 187 29z m3696 11 c14
-5 34 -23 43 -40 13 -23 24 -30 49 -30 42 0 70 -30 89 -97 14 -50 14 -56 -3
-91 -10 -20 -32 -46 -50 -57 -24 -15 -30 -25 -26 -42 8 -36 -13 -63 -50 -63
-18 0 -38 5 -43 10 -7 7 -14 3 -23 -13 -14 -26 -51 -53 -51 -37 0 5 -9 10 -19
10 -11 0 -26 7 -35 15 -8 8 -21 15 -30 15 -24 0 -28 17 -11 50 l16 31 -26 -17
c-22 -14 -31 -15 -69 -4 -44 12 -49 18 -70 83 -11 34 38 96 76 97 15 0 15 3 2
28 -29 56 -5 115 54 132 104 30 141 34 177 20z m-4421 -123 c15 -24 -2 -34
-73 -42 -67 -8 -111 6 -111 35 0 24 4 25 41 3 29 -17 31 -17 67 4 43 25 61 25
76 0z m5069 -2 c37 -19 40 -19 69 -2 34 20 48 15 41 -12 -11 -42 -127 -46
-178 -6 -20 15 -20 15 0 30 10 8 22 14 25 12 3 -1 22 -11 43 -22z m-5043 -130
c-23 -28 -47 -36 -74 -25 -34 13 -33 28 2 22 19 -2 33 3 46 17 23 26 47 12 26
-14z m5015 -3 c20 4 23 3 14 -8 -24 -29 -89 -11 -89 23 0 10 6 10 25 -3 14 -9
36 -14 50 -12z m-2297 -101 c255 -56 445 -160 621 -341 242 -248 330 -518 304
-935 l-8 -140 -8 239 c-7 202 -12 253 -32 333 -28 109 -82 227 -154 334 -55
83 -195 226 -286 294 -105 78 -290 156 -452 191 -95 20 -320 23 -412 5 -393
-76 -700 -299 -864 -626 -84 -169 -106 -289 -108 -590 -1 -111 -4 -180 -9
-165 -15 46 -11 432 4 507 97 457 451 797 936 897 41 9 91 18 110 20 71 9 273
-4 358 -23z m-2965 -15 c157 -35 348 -132 460 -236 167 -154 246 -329 235
-519 -5 -88 -38 -168 -89 -217 -35 -33 -36 -23 -7 42 16 37 23 75 26 156 2 59
1 119 -3 135 -6 23 -10 11 -20 -62 -13 -99 -41 -199 -60 -215 -9 -8 -11 39 -9
213 2 169 1 203 -6 142 -15 -138 -42 -295 -51 -295 -22 0 -29 51 -30 217 -1
195 -12 191 -24 -8 -4 -66 -11 -122 -16 -124 -21 -14 -40 61 -50 198 -16 214
-28 240 -26 54 1 -86 -1 -157 -5 -157 -18 0 -44 60 -60 134 -11 56 -17 70 -17
46 -1 -19 3 -50 8 -68 5 -17 7 -32 4 -32 -2 0 -59 54 -126 119 -130 127 -272
250 -247 214 8 -11 61 -73 118 -136 56 -63 102 -118 102 -121 0 -4 -12 -4 -27
-1 -22 4 -19 1 12 -14 22 -10 54 -33 70 -51 l30 -33 -25 6 c-14 3 -65 8 -115
11 l-90 5 85 -15 c99 -17 183 -53 200 -85 11 -20 10 -21 -6 -14 -11 4 -37 8
-59 10 -22 1 -87 5 -145 8 l-105 6 95 -14 c170 -26 278 -60 257 -81 -3 -4 -68
-1 -144 5 -257 21 -297 12 -82 -19 158 -22 258 -44 273 -61 8 -9 0 -10 -34 -5
-25 3 -115 8 -200 12 -180 6 -194 -8 -25 -25 131 -14 245 -36 259 -52 8 -9
-29 -10 -146 -6 -159 6 -204 -3 -105 -21 28 -5 79 -15 113 -21 33 -6 70 -11
82 -11 12 0 22 -4 22 -10 0 -12 -36 -12 -105 0 -27 4 -54 5 -58 1 -11 -11 161
-61 209 -61 31 -1 36 -3 21 -11 -18 -11 -130 1 -196 20 -97 29 -230 138 -312
257 -48 70 -103 196 -144 329 -20 66 -61 192 -91 280 -30 88 -58 168 -61 177
-4 14 3 18 38 21 80 9 333 -2 402 -17z m5875 11 c8 -5 2 -28 -18 -75 -16 -38
-58 -165 -95 -284 -102 -336 -151 -438 -272 -554 -80 -79 -175 -134 -269 -159
-67 -17 -138 -20 -129 -5 3 6 15 10 26 10 20 0 106 24 144 40 14 6 3 9 -40 9
-95 2 -94 16 3 30 48 7 109 17 137 23 46 10 48 11 25 20 -14 5 -41 7 -60 4
-48 -8 -235 5 -218 15 7 4 88 18 178 30 191 25 232 42 85 35 -109 -6 -251 3
-238 14 4 4 78 18 163 30 187 26 204 29 197 36 -3 3 -60 1 -125 -5 -146 -13
-219 -14 -226 -2 -10 15 57 39 180 65 131 27 114 32 -44 12 l-102 -13 22 25
c27 28 67 50 123 68 l40 13 -32 0 c-17 1 -43 -3 -57 -9 -14 -5 -26 -6 -26 -2
0 17 64 73 89 78 42 9 47 12 24 13 -13 1 -23 4 -23 7 0 8 110 134 194 223 l61
64 -64 -49 c-118 -90 -321 -283 -321 -304 0 -6 -4 -10 -10 -10 -5 0 -11 19
-11 43 l-1 42 -9 -53 c-5 -29 -16 -67 -25 -84 -15 -28 -17 -30 -26 -13 -6 10
-13 67 -16 127 -3 59 -7 106 -11 103 -3 -3 -8 -73 -11 -155 -5 -119 -9 -154
-22 -166 -14 -15 -17 -13 -27 17 -15 48 -31 154 -32 219 l-1 55 -9 -40 c-5
-22 -7 -103 -4 -180 5 -131 -1 -182 -21 -162 -16 16 -44 146 -50 232 -12 162
-25 129 -19 -45 4 -91 7 -186 8 -212 4 -112 -44 -8 -67 145 -7 48 -16 90 -19
93 -3 3 -9 -15 -12 -40 -9 -60 2 -168 25 -232 38 -111 -27 -70 -70 43 -19 50
-21 72 -17 153 9 171 67 298 197 430 152 154 339 248 570 285 86 14 335 15
358 2z m-3248 -532 c43 -22 58 -60 66 -161 6 -83 5 -90 -15 -108 -19 -17 -21
-17 -21 -3 0 10 -4 17 -9 17 -5 0 -7 -10 -3 -22 4 -17 2 -20 -11 -15 -11 4
-17 -1 -19 -16 -3 -19 -8 -15 -31 25 -22 37 -33 46 -52 43 -20 -2 -31 7 -56
49 -43 70 -52 102 -34 135 24 47 39 54 148 70 4 0 21 -6 37 -14z m330 -13 c44
-28 61 -54 56 -89 -5 -37 -61 -123 -80 -123 -7 0 -22 -18 -35 -40 -26 -47 -41
-51 -41 -12 l0 27 -13 -24 c-16 -31 -37 -39 -37 -13 0 24 -29 53 -31 31 -3
-38 -17 45 -18 104 -2 122 36 172 124 161 27 -4 61 -13 75 -22z m-625 -148
c30 -14 116 -109 173 -191 29 -41 28 -49 -5 -24 -31 25 -44 19 -19 -8 12 -13
14 -21 6 -26 -6 -4 -9 -13 -6 -20 9 -24 -61 -6 -191 49 -122 51 -123 51 -123
84 0 63 46 133 95 145 33 8 36 8 70 -9z m872 -1 c42 -20 70 -62 79 -119 7 -50
-6 -78 -49 -104 -41 -26 -59 -25 -28 1 38 31 22 29 -54 -7 -38 -18 -83 -34
-98 -34 -16 0 -37 -5 -49 -11 -30 -16 -34 -2 -8 26 26 27 16 33 -16 11 -23
-16 -51 -6 -39 14 5 9 4 11 -3 6 -22 -14 -12 5 53 94 104 140 136 159 212 123z
m-3688 -64 c17 -6 31 -17 31 -25 0 -12 -26 -14 -154 -12 -161 3 -175 10 -66
34 71 16 149 17 189 3z m6635 -10 c26 -6 48 -14 50 -18 2 -3 -68 -7 -155 -9
-87 -1 -159 2 -159 7 0 12 21 28 45 34 29 9 166 0 219 -14z m-3345 -187 c43
-21 70 -57 81 -108 10 -41 3 -87 -10 -79 -5 3 -24 -10 -43 -29 -35 -34 -37
-34 -104 -29 -37 2 -74 10 -82 16 -12 10 -13 9 -7 -3 4 -8 -9 3 -30 25 -33 36
-36 37 -31 15 6 -24 5 -24 -8 -6 -36 47 -1 149 64 193 42 29 120 31 170 5z
m-3239 -23 c169 -27 315 -102 430 -218 130 -133 176 -271 135 -408 -14 -47
-52 -109 -61 -100 -2 2 2 22 10 45 8 23 18 70 22 104 6 59 5 62 -10 43 -15
-19 -15 -19 -16 10 -1 54 -17 60 -23 8 -9 -71 -28 -155 -35 -149 -3 3 -4 56
-3 118 1 62 -2 126 -7 142 -6 24 -11 8 -22 -82 -16 -132 -32 -142 -41 -26 -3
44 -13 93 -22 109 -16 29 -16 29 -10 -42 7 -91 -7 -96 -38 -13 -12 33 -24 60
-26 60 -3 0 -2 -19 2 -42 l7 -43 -22 20 c-13 11 -30 36 -38 55 -11 25 -17 30
-19 18 -3 -13 -30 6 -114 78 -150 129 -155 124 -19 -20 30 -32 45 -53 33 -47
-31 16 -43 13 -13 -3 14 -8 28 -12 31 -10 3 2 14 -5 24 -16 18 -20 17 -20 -24
-20 -26 0 -40 -4 -36 -10 3 -5 18 -10 33 -10 15 0 41 -9 57 -20 l30 -20 -40
-2 c-22 -1 -56 -1 -75 0 -26 2 -31 0 -20 -8 8 -5 34 -10 57 -10 46 0 95 -18
87 -31 -3 -5 -38 -9 -77 -10 -112 -1 -126 -15 -22 -22 50 -3 98 -9 107 -12 35
-14 6 -25 -65 -26 -40 0 -90 -4 -112 -8 -36 -7 -30 -8 50 -15 50 -3 115 -9
145 -13 47 -5 51 -7 28 -13 -15 -5 -70 -11 -123 -15 -52 -4 -97 -11 -100 -15
-6 -10 54 -19 130 -21 116 -2 114 -17 -3 -18 -117 -1 -135 -10 -62 -32 22 -7
37 -16 34 -20 -6 -10 59 -29 101 -30 17 0 39 -4 50 -9 38 -17 -109 2 -159 21
-193 72 -334 302 -381 620 -18 129 -19 176 -2 182 22 10 171 7 237 -4z m6564
0 c7 -6 -17 -199 -33 -270 -21 -94 -64 -216 -97 -275 -66 -119 -209 -246 -301
-268 -27 -7 -28 -7 -6 8 11 9 34 21 50 28 l28 11 -35 7 -35 7 45 3 c41 3 42 4
10 7 -97 9 -123 15 -109 24 8 5 39 9 69 10 30 0 66 4 80 8 40 11 5 19 -119 27
-61 4 -108 10 -106 14 3 4 63 11 135 15 128 7 191 25 89 25 -73 0 -183 20
-172 31 6 6 56 12 112 16 108 6 150 23 58 23 -69 0 -147 11 -147 20 0 10 71
30 111 31 30 1 27 3 -18 13 -70 15 -58 34 28 45 62 8 62 9 17 10 -27 0 -48 4
-48 8 0 6 90 115 114 138 31 30 59 67 44 59 -33 -18 -237 -200 -243 -216 -11
-31 -25 -20 -26 20 l-1 37 -7 -35 c-4 -19 -14 -46 -21 -60 -14 -24 -15 -23
-24 40 l-11 65 -5 -75 c-9 -133 -38 -132 -48 1 -7 108 -20 71 -21 -64 -1 -57
-5 -96 -10 -92 -12 7 -41 134 -41 182 0 29 -3 34 -10 23 -6 -8 -10 -60 -9
-115 0 -55 0 -109 -1 -120 -3 -27 -49 112 -50 150 0 23 -3 26 -10 14 -11 -19
-16 -185 -6 -219 l7 -25 -20 23 c-85 98 -35 327 100 462 128 128 284 205 461
230 68 9 223 9 232 -1z m-3841 -38 c46 -16 96 -35 112 -43 l28 -15 -27 -7
c-14 -3 -26 -11 -26 -16 0 -6 -8 -10 -17 -11 -15 0 -15 -2 2 -8 15 -6 3 -12
-52 -25 -40 -9 -87 -17 -105 -17 -23 -1 -26 -3 -10 -6 12 -2 22 -9 22 -14 0
-17 -106 -14 -129 4 -39 32 -36 133 6 175 21 21 30 23 68 17 25 -3 82 -19 128
-34z m1075 3 c33 -37 31 -119 -3 -157 -30 -31 -63 -34 -140 -13 -27 8 -48 15
-45 16 3 1 13 3 23 5 37 7 26 12 -45 24 -90 14 -112 26 -83 44 18 11 17 12
-20 17 l-40 5 76 28 c106 40 210 67 234 61 11 -3 30 -17 43 -30z m-892 -219
c-6 -29 -4 -35 10 -35 41 0 -93 -108 -203 -164 -65 -32 -76 -32 -102 0 -29 37
-29 106 1 133 31 30 222 99 277 100 21 1 23 -2 17 -34z m600 14 c158 -49 224
-92 224 -149 0 -33 -35 -90 -55 -90 -51 0 -309 177 -275 188 27 9 29 26 8 49
l-21 23 25 0 c14 0 57 -9 94 -21z m1824 -99 c50 -147 130 -284 316 -540 38
-53 78 -113 89 -133 l20 -37 15 47 c8 25 20 48 26 50 6 2 17 -35 27 -94 8 -54
34 -155 56 -224 63 -198 75 -276 75 -493 l1 -189 60 65 c33 36 74 86 90 112
16 25 33 46 37 46 16 0 7 -47 -17 -96 -26 -51 -115 -155 -115 -134 0 7 -8 6
-22 -4 -12 -9 -30 -16 -40 -16 -15 0 -18 -9 -18 -46 0 -25 -4 -43 -8 -40 -5 3
-7 63 -4 135 5 141 -5 265 -19 221 l-7 -25 -1 27 c-1 15 -6 30 -12 34 -6 3 -9
22 -7 40 2 19 0 34 -4 34 -4 0 -8 15 -8 33 0 17 -14 82 -31 142 -17 61 -33
121 -35 135 -18 84 -125 273 -257 450 -39 52 -76 99 -84 103 -17 11 -84 110
-116 174 -35 67 -67 186 -67 243 0 38 3 46 19 46 14 0 24 -16 41 -66z m-4287
47 c10 -27 -16 -136 -52 -217 -33 -76 -169 -293 -188 -302 -16 -7 -82 -96 -76
-102 4 -3 1 -6 -6 -6 -7 0 -9 -5 -5 -12 4 -6 3 -8 -4 -5 -12 8 -103 -125 -105
-153 -1 -10 -4 -17 -7 -15 -15 10 -99 -204 -121 -306 -6 -30 -14 -58 -18 -64
-4 -5 -8 -23 -9 -39 -1 -17 -6 -32 -11 -35 -16 -11 -43 -195 -47 -327 -3 -84
1 -157 9 -201 7 -39 10 -79 7 -89 -7 -19 -28 80 -33 157 -1 21 -7 35 -13 32
-23 -9 -84 29 -135 85 -57 61 -79 110 -69 151 5 22 9 18 48 -42 50 -78 127
-165 137 -155 4 4 8 94 10 200 2 217 13 283 83 500 23 70 44 151 47 180 3 29
8 68 11 87 l6 34 19 -29 c10 -16 19 -41 19 -56 0 -16 5 -28 10 -28 6 0 10 4
10 10 0 5 70 110 155 232 144 208 236 369 265 463 7 22 17 46 23 53 12 16 34
16 40 -1z m1972 -69 c4 -13 7 -27 6 -31 -3 -16 26 -36 36 -26 6 6 14 5 22 -5
9 -11 9 -27 -5 -73 -20 -68 -51 -141 -72 -165 -21 -25 -78 -23 -100 3 -45 54
-52 62 -52 54 0 -4 -6 -2 -14 4 -27 22 -7 60 103 193 31 37 59 68 62 68 4 0
10 -10 14 -22z m331 -11 c136 -158 154 -189 146 -234 -5 -25 -27 -31 -35 -10
-3 6 -6 2 -6 -9 -1 -16 -14 -27 -50 -43 -27 -11 -56 -18 -64 -15 -30 11 -107
200 -107 262 0 24 1 25 20 7 19 -18 20 -17 20 4 0 18 3 20 18 12 16 -8 17 -6
14 25 -5 43 8 43 44 1z m-606 -102 c-7 -8 -18 -15 -24 -15 -6 0 -2 7 8 15 25
19 32 19 16 0z m840 5 c8 -5 11 -10 5 -10 -5 0 -17 5 -25 10 -8 5 -10 10 -5
10 6 0 17 -5 25 -10z m-483 -42 c-2 -7 -12 -38 -21 -68 -17 -59 -36 -96 -36
-72 0 25 45 152 53 152 5 0 7 -6 4 -12z m167 -82 c19 -60 19 -60 2 -44 -8 7
-12 16 -9 21 2 4 -1 7 -8 7 -6 0 -9 8 -6 20 3 11 1 20 -3 20 -5 0 -8 9 -7 20
2 27 11 14 31 -44z m-1159 -52 c34 -16 65 -65 65 -102 0 -10 -9 -31 -20 -45
l-21 -26 -407 -2 c-224 -1 -418 -1 -432 -1 -32 0 -60 36 -60 77 0 36 38 91 74
105 12 5 189 9 394 9 321 1 379 -1 407 -15z m2936 -23 c30 -30 39 -46 39 -73
0 -40 -23 -77 -48 -76 -9 0 -21 0 -27 -2 -5 -1 -48 -1 -95 0 -83 3 -83 3 -30
10 42 5 26 7 -65 7 -80 0 -110 -2 -90 -8 22 -6 17 -7 -20 -3 -73 7 -104 7
-267 -1 -114 -6 -154 -5 -179 6 -25 10 -34 10 -37 1 -6 -18 -37 -15 -55 6 -25
28 -30 67 -13 104 33 68 27 67 460 68 l388 0 39 -39z m107 -290 c161 -56 286
-183 341 -347 60 -181 46 -476 -30 -626 -24 -48 -64 -99 -72 -92 -2 2 -10 -9
-17 -26 -7 -16 -16 -28 -20 -25 -4 3 -10 -5 -13 -16 -3 -12 -10 -18 -15 -15
-5 3 -15 -6 -22 -19 -16 -29 -46 -45 -35 -18 17 43 15 46 -12 15 -31 -36 -49
-43 -33 -12 8 15 8 20 -3 20 -7 0 -14 13 -15 31 -2 24 6 41 37 74 90 97 127
223 118 403 -10 217 -91 367 -238 442 -99 51 -44 50 -1974 50 -1988 0 -1862 4
-1974 -63 -149 -89 -221 -242 -221 -472 0 -166 33 -266 116 -355 43 -46 55
-75 33 -82 -5 -2 -12 -12 -14 -23 -2 -11 -4 -21 -4 -22 -3 -7 -67 23 -81 37
-10 10 -24 22 -32 26 -26 16 -107 123 -128 169 -40 88 -54 172 -53 325 2 221
44 354 146 467 99 108 196 160 322 172 39 3 916 6 1950 5 l1880 -1 63 -22z
m-5232 -31 c126 -44 239 -141 270 -232 23 -69 23 -151 0 -211 -21 -57 -29 -58
-16 -2 10 42 3 115 -11 115 -4 0 -10 -12 -12 -27 -2 -16 -5 -1 -7 32 -2 50 -4
55 -10 30 -4 -16 -8 -51 -9 -77 -2 -80 -21 -67 -21 15 0 58 -3 74 -15 74 -10
0 -14 -12 -13 -44 1 -61 -8 -63 -22 -4 -14 58 -36 84 -25 30 l7 -34 -24 33
c-35 49 -143 161 -122 127 10 -16 28 -49 41 -72 l22 -43 -37 -1 -37 -1 37 -12
c21 -6 46 -19 55 -29 17 -18 16 -18 -44 -15 -33 2 -59 0 -56 -4 2 -5 14 -8 26
-8 34 0 97 -20 97 -30 0 -6 -31 -10 -70 -10 -38 0 -70 -4 -70 -9 0 -4 36 -16
81 -26 44 -9 78 -19 76 -22 -3 -2 -37 -4 -76 -5 -46 0 -71 -4 -68 -11 4 -14
64 -35 99 -36 15 -1 30 -6 34 -13 5 -8 -8 -9 -52 -4 -52 6 -57 5 -44 -8 8 -8
29 -22 45 -30 23 -12 26 -16 10 -16 -52 1 -138 83 -178 169 -26 55 -31 80 -35
166 -2 56 1 141 8 189 l12 88 51 -7 c28 -4 75 -16 103 -25z m6641 -37 c14
-122 10 -272 -10 -333 -24 -71 -87 -155 -135 -179 -45 -22 -107 -37 -98 -23 3
5 18 12 33 15 16 3 37 13 48 21 18 14 15 14 -37 9 -78 -8 -77 12 2 28 33 6 60
16 60 20 0 5 -27 9 -60 9 -33 0 -60 4 -60 8 0 9 46 24 108 37 51 11 29 21 -37
18 -95 -5 -77 30 22 42 71 9 68 16 -7 16 -61 0 -67 6 -36 34 11 10 17 22 14
27 -3 4 10 15 28 23 27 12 29 14 11 15 -29 0 -29 1 3 53 20 32 4 20 -65 -53
-50 -52 -91 -103 -91 -112 0 -38 -18 -16 -27 35 l-10 52 -3 -60 -2 -60 -19 70
-18 70 3 -85 c3 -78 2 -82 -10 -55 -7 17 -13 38 -14 48 0 9 -5 17 -11 17 -12
0 -9 -34 7 -120 6 -31 5 -33 -8 -20 -23 23 -38 77 -38 140 0 112 89 234 219
299 68 35 149 59 198 60 l31 1 9 -67z m-5877 39 c0 -5 -7 -17 -15 -28 -14 -18
-14 -17 -4 9 12 27 19 34 19 19z m4284 -212 c16 -6 41 -10 57 -10 15 0 29 -5
31 -11 2 -5 18 -11 35 -11 18 -1 30 -5 27 -10 -3 -4 2 -8 10 -8 9 0 16 -4 16
-10 0 -5 5 -10 12 -10 14 0 78 -60 78 -73 0 -5 -6 -7 -12 -4 -7 2 -23 0 -35
-4 -19 -7 -27 -2 -50 27 -39 49 -111 84 -176 86 -88 1 -3559 1 -3610 0 -50 -2
-90 -18 -144 -59 -21 -16 -33 -20 -38 -13 -5 8 -13 6 -26 -6 -10 -9 -16 -20
-14 -25 3 -4 1 -10 -5 -14 -6 -4 -10 5 -10 19 0 23 28 49 55 51 6 0 9 7 7 16
-4 30 98 68 213 77 130 11 3546 3 3579 -8z m-3521 -71 c46 -12 103 -61 111
-94 7 -27 -3 -53 -31 -80 -15 -16 -17 -14 -32 25 -9 24 -27 50 -41 59 -13 9
-21 11 -17 5 5 -8 -6 -10 -38 -6 -44 5 -103 -11 -118 -32 -4 -6 -12 -28 -17
-49 -9 -31 -7 -45 9 -82 28 -64 55 -74 138 -51 59 15 67 16 89 1 73 -48 -28
-165 -142 -165 -66 0 -164 62 -192 122 -43 90 -38 155 19 241 63 95 160 135
262 106z m925 1 c-43 -25 -507 -41 -564 -20 -13 5 -37 5 -58 -1 -48 -13 -156
-18 -156 -7 0 5 -4 7 -8 4 -5 -3 -21 4 -38 15 -29 19 -28 19 406 19 291 -1
429 -4 418 -10z m1422 0 c0 -6 -12 -15 -26 -20 -14 -6 -22 -14 -19 -20 3 -5
-1 -10 -10 -10 -15 0 -15 -2 1 -17 17 -17 10 -18 -152 -21 -109 -2 -170 1
-172 8 -2 5 -11 10 -19 10 -23 0 -93 22 -93 30 0 3 17 5 38 3 28 -2 32 -1 17
6 -40 17 -405 18 -405 1 0 -5 21 -10 47 -10 77 0 38 -12 -87 -27 -45 -5 -50
-8 -30 -14 32 -9 -244 -10 -290 -1 -36 7 -51 29 -28 43 10 7 9 9 -3 9 -9 0
-24 9 -34 20 -18 20 -17 20 623 20 432 0 642 -3 642 -10z m1000 2 c-8 -2 -28
-14 -43 -24 -25 -18 -34 -19 -94 -8 -36 6 -108 11 -160 11 -80 0 -97 -3 -123
-22 -27 -21 -36 -22 -147 -16 -81 4 -110 3 -94 -4 14 -5 71 -10 127 -11 58 -1
101 -5 98 -10 -10 -15 -183 -7 -236 12 -60 21 -70 30 -33 30 41 0 22 13 -23
16 -20 1 -59 9 -87 17 -47 15 -21 16 390 15 242 0 433 -3 425 -6z m218 -7
c111 -47 190 -191 162 -297 -16 -60 -99 -140 -163 -156 -99 -25 -217 32 -217
106 0 49 20 57 102 42 60 -12 74 -12 96 1 41 23 64 63 64 107 -1 81 -50 127
-134 127 -45 0 -75 -26 -88 -77 -6 -21 -15 -38 -21 -38 -15 0 -49 63 -49 92 0
77 150 133 248 93z m-3868 -5 c0 -5 -5 -10 -11 -10 -5 0 -7 5 -4 10 3 6 8 10
11 10 2 0 4 -4 4 -10z m1333 -14 c34 -34 30 -313 -5 -380 -14 -26 -14 -25 -15
31 -1 151 0 146 -30 139 -31 -8 -101 -55 -157 -105 -35 -32 -39 -33 -34 -14 9
33 -7 37 -47 13 l-34 -21 8 29 c5 15 16 43 26 61 9 19 12 30 5 26 -7 -4 -21
-27 -32 -51 -10 -24 -22 -44 -25 -44 -3 0 -3 22 0 49 14 117 101 208 252 262
61 22 70 23 88 5z m1505 -31 c121 -58 202 -160 202 -254 0 -25 0 -25 -30 9
-30 35 -42 31 -15 -4 8 -11 15 -31 15 -44 0 -21 -1 -22 -16 -8 -8 9 -19 16
-24 16 -5 0 -15 3 -24 6 -11 4 -16 1 -16 -10 0 -11 -24 4 -72 44 -39 33 -75
60 -80 60 -11 0 -10 -18 2 -25 8 -5 8 -11 0 -20 -8 -9 -8 -15 0 -20 5 -3 10
-27 10 -53 0 -58 -16 -40 -26 28 -8 65 -13 77 -30 84 -13 5 -15 -6 -12 -83 3
-97 -10 -109 -31 -26 -15 61 -15 307 1 323 21 21 71 13 146 -23z m-2878 -5 c0
-11 -7 -20 -15 -20 -13 0 -14 4 -5 20 6 11 13 20 15 20 3 0 5 -9 5 -20z m989
6 c8 -5 16 -3 21 4 7 11 14 11 39 0 25 -10 37 -10 61 0 41 17 48 7 13 -16 -21
-14 -51 -20 -123 -22 -83 -3 -102 -1 -149 20 l-54 23 89 0 c50 -1 96 -5 103
-9z m-224 -25 c84 -38 153 -125 196 -248 41 -117 36 -300 -11 -393 l-18 -35 5
82 c13 194 -67 367 -208 452 -20 11 -76 31 -124 44 -85 22 -108 38 -63 46 22
3 22 4 3 11 -17 7 -12 12 35 34 65 31 128 33 185 7z m1425 -8 c114 -52 194
-194 156 -278 l-14 -30 -12 33 c-7 17 -18 32 -25 32 -16 0 -45 -38 -45 -58 0
-25 42 -111 57 -116 9 -4 31 8 55 29 79 72 137 81 208 32 53 -36 73 -70 78
-135 5 -70 1 -77 -84 -184 -36 -44 -71 -92 -77 -107 -15 -34 -67 -117 -67
-107 0 4 12 37 26 72 14 36 24 67 22 70 -3 2 -26 -33 -52 -78 -41 -71 -47 -78
-43 -48 3 19 9 44 13 55 7 18 6 18 -9 6 -9 -7 -17 -19 -17 -25 0 -6 -9 -29
-20 -51 l-20 -40 6 40 c3 22 7 48 10 58 9 29 -10 18 -39 -24 -29 -42 -47 -44
-47 -4 0 35 -14 38 -43 10 l-24 -25 -8 32 -7 33 -13 -29 -12 -29 -8 39 c-10
51 -18 399 -10 440 3 18 17 49 31 69 29 43 26 72 -5 56 -11 -6 -30 -28 -43
-48 -22 -37 -23 -48 -28 -300 -3 -144 -9 -266 -13 -270 -5 -4 -12 -2 -16 5 -9
15 -21 236 -21 394 0 111 -12 161 -47 200 -18 20 -53 24 -53 6 0 -7 12 -30 28
-52 l27 -39 2 -251 c1 -138 -2 -242 -5 -231 -10 29 -32 25 -46 -10 l-13 -30
-17 38 c-23 46 -36 47 -36 2 0 -38 -15 -47 -25 -14 -4 13 -12 18 -21 15 -8 -3
-25 3 -37 15 -27 25 -33 11 -18 -48 7 -25 10 -47 9 -49 -2 -2 -25 33 -52 77
-26 44 -50 79 -52 76 -2 -2 3 -23 11 -47 20 -57 19 -68 -5 -37 -11 14 -20 31
-20 38 0 7 -3 9 -7 6 -3 -4 -21 19 -40 52 -18 32 -52 81 -76 107 -69 78 -77
94 -77 152 0 60 9 83 53 130 62 65 147 62 222 -7 25 -23 48 -41 53 -41 5 0 18
10 29 23 45 49 55 96 27 135 -20 29 -26 28 -48 -9 -16 -28 -20 -29 -28 -15
-17 30 -11 104 12 151 27 57 97 118 164 145 66 26 180 23 246 -7z m1322 17
c32 -9 98 -70 98 -90 0 -4 -34 -12 -75 -19 -101 -17 -199 -67 -263 -135 -41
-43 -55 -68 -73 -127 -24 -78 -31 -193 -16 -279 l8 -45 -20 32 c-62 100 -68
285 -13 426 74 190 206 278 354 237z m-1829 -50 c76 0 116 -4 112 -10 -8 -12
-345 -14 -345 -2 0 19 17 24 65 18 28 -3 103 -6 168 -6z m-1663 -10 c-15 -9
-16 -13 -19 -45 0 -9 -7 -15 -13 -14 -7 1 -20 1 -28 0 -13 -1 -13 -2 0 -11 12
-8 10 -10 -9 -10 -17 0 -22 -4 -17 -16 3 -8 2 -12 -4 -9 -13 8 -13 35 -1 35 5
0 7 10 5 23 -2 12 -2 17 1 10 5 -8 14 -9 36 -1 34 12 29 31 -7 22 -13 -3 -24
-2 -24 3 0 18 13 23 54 23 30 0 37 -3 26 -10z m2643 -5 c1 -5 -18 -13 -43 -16
l-45 -5 35 -5 c19 -3 -9 -7 -62 -7 -56 -1 -99 2 -103 8 -3 6 -25 10 -49 10
-23 0 -51 7 -62 15 -17 13 -1 14 154 12 104 -1 173 -6 175 -12z m1497 6 c0 -5
-10 -11 -23 -15 -18 -4 -23 -12 -22 -33 1 -16 0 -19 -2 -9 -3 11 -12 30 -20
43 -15 23 -15 23 26 23 22 0 41 -4 41 -9z m-3105 -11 c-3 -5 -35 -10 -70 -10
-35 0 -67 5 -70 10 -4 6 22 10 70 10 48 0 74 -4 70 -10z m2130 0 c-3 -5 -33
-10 -65 -10 -32 0 -62 5 -65 10 -4 6 20 10 65 10 45 0 69 -4 65 -10z m-1445
-20 c-19 -13 -280 -11 -280 1 0 5 66 9 148 9 101 0 142 -3 132 -10z m2404 -89
c-15 -10 -16 -43 -2 -52 10 -7 9 -9 -4 -9 -14 0 -18 8 -18 33 0 37 7 50 22 40
6 -3 6 -8 2 -12z m-4155 -15 c-2 -2 -20 -1 -39 2 l-35 6 30 6 c27 6 56 -3 44
-14z m1318 -10 c-29 -27 -30 -27 -21 -2 3 9 12 16 20 16 8 0 14 5 14 12 0 6 3
8 7 5 3 -4 -6 -18 -20 -31z m1343 -26 c19 -12 -156 -12 -185 0 -13 6 13 9 75
9 52 0 102 -4 110 -9z m-1017 -7 c-34 -2 -93 -2 -130 0 -37 2 -9 3 62 3 72 0
102 -1 68 -3z m2532 -36 c24 -3 22 -4 -12 -6 -35 -1 -41 2 -36 15 3 9 8 11 12
6 3 -6 20 -12 36 -15z m-4167 -1 c3 -3 -20 -6 -52 -6 -31 0 -55 4 -52 8 5 9
94 7 104 -2z m4202 -56 c-14 -4 -45 -8 -70 -8 l-45 1 40 7 c22 4 54 7 70 8 29
0 29 0 5 -8z m-4177 -19 c9 -9 -6 -11 -62 -9 -53 2 -76 7 -79 17 -4 11 8 13
63 9 37 -3 72 -11 78 -17z m4183 -16 c-26 -19 -90 -19 -106 0 -11 13 -4 15 56
15 63 -1 67 -2 50 -15z m-66 -45 c0 -5 -5 -10 -11 -10 -5 0 -7 5 -4 10 3 6 8
10 11 10 2 0 4 -4 4 -10z m-3620 -43 c118 -60 147 -218 52 -286 -37 -26 -48
-26 -103 -1 -60 27 -91 25 -124 -7 -22 -23 -26 -34 -21 -63 20 -129 284 -145
423 -25 48 41 58 43 74 14 10 -19 5 -27 -38 -71 -102 -104 -248 -140 -409
-102 -56 13 -79 15 -82 6 -2 -8 -10 -8 -29 1 -21 9 -27 9 -31 -1 -6 -20 -22
-14 -63 28 -41 41 -63 52 -53 25 12 -30 -15 -14 -38 23 -20 32 -23 50 -23 132
0 82 4 103 26 151 79 168 289 253 439 176z m3313 7 c68 -22 158 -109 198 -190
30 -60 31 -69 27 -150 -4 -74 -8 -90 -26 -105 -12 -9 -22 -21 -22 -27 0 -5 -9
-17 -21 -27 -20 -19 -20 -19 -10 9 16 40 14 40 -25 -4 -20 -22 -42 -40 -48
-40 -7 0 -17 -5 -24 -12 -7 -7 -28 -13 -47 -14 -35 -1 -35 -1 -15 18 11 10 20
20 20 22 0 2 -26 -7 -57 -20 -58 -24 -173 -34 -173 -15 0 5 -26 11 -57 14 -32
3 -71 7 -88 9 -76 8 -185 109 -170 157 9 29 20 26 68 -13 72 -58 104 -69 203
-74 102 -5 148 6 194 45 37 31 42 91 10 123 -26 26 -86 26 -125 0 -43 -28 -81
-25 -115 8 -59 59 -59 164 -2 225 78 82 178 102 305 61z m-3758 -74 c-3 -5
-39 -10 -80 -10 -41 0 -77 5 -80 10 -4 6 25 10 80 10 55 0 84 -4 80 -10z
m-1340 -20 c23 -25 17 -32 -21 -21 -16 4 -41 4 -56 0 -36 -10 -45 5 -16 25 31
22 71 20 93 -4z m5445 12 c0 -8 -110 -5 -119 3 -2 3 23 5 57 5 34 0 62 -3 62
-8z m1271 -2 c38 -21 21 -35 -40 -35 -58 0 -61 3 -38 33 12 15 51 16 78 2z
m-68 -134 l28 -21 45 24 c24 13 47 21 50 18 10 -10 -70 -57 -99 -57 -37 0 -77
40 -77 77 l0 28 13 -24 c6 -13 25 -33 40 -45z m-3993 30 c87 -36 176 -148 230
-287 42 -110 35 -122 -27 -47 -10 13 -27 30 -37 38 -18 14 -19 13 -12 -35 5
-28 12 -58 18 -68 20 -38 -3 -29 -56 21 -30 29 -57 52 -60 52 -6 0 -4 -5 33
-99 12 -29 20 -55 18 -58 -3 -2 -16 10 -30 26 -13 16 -28 27 -31 24 -3 -4 -21
11 -38 32 -78 92 -81 93 -43 20 20 -38 49 -90 65 -115 16 -25 29 -48 29 -52 1
-9 -68 30 -87 49 -17 16 -26 17 -16 1 4 -7 -7 -2 -25 11 -50 36 -49 17 2 -48
26 -33 47 -62 47 -64 0 -10 -64 26 -115 64 -92 68 -146 138 -181 233 l-22 61
-7 -38 c-9 -46 8 -116 39 -166 13 -21 57 -68 98 -106 l73 -67 -70 37 c-38 21
-78 45 -88 53 -22 19 -34 8 -16 -14 26 -32 143 -101 226 -134 79 -31 123 -60
92 -60 -8 0 -78 21 -157 46 -79 25 -146 44 -148 41 -2 -2 16 -15 40 -28 25
-13 42 -27 40 -31 -3 -4 26 -23 63 -42 60 -31 64 -35 38 -35 -16 0 -68 8 -115
19 -98 23 -100 23 -100 12 0 -5 47 -33 104 -63 58 -29 103 -55 102 -57 -2 -1
-46 4 -99 13 -52 9 -108 15 -123 13 -26 -3 -22 -6 36 -30 59 -25 61 -27 25
-22 -51 7 -31 -9 40 -32 50 -16 80 -34 58 -34 -6 0 -55 9 -110 21 -54 11 -109
23 -123 26 l-25 4 27 -23 c66 -55 92 -71 146 -85 31 -8 59 -17 62 -20 11 -12
-113 8 -159 26 -27 11 -51 17 -54 14 -8 -8 -96 44 -136 81 -35 31 -35 31 -18
4 10 -16 14 -28 9 -28 -12 0 -71 101 -100 172 -35 86 -37 203 -5 265 28 52 86
100 138 114 32 9 50 8 92 -5 29 -9 55 -21 58 -26 4 -6 10 -10 15 -10 4 0 -1
28 -12 63 -43 134 7 279 120 349 79 48 182 58 262 24z m1565 -11 c151 -73 202
-239 130 -418 -6 -14 0 -13 36 8 48 27 116 33 166 14 40 -15 92 -67 114 -114
51 -109 0 -306 -110 -422 -50 -54 -79 -74 -128 -91 -52 -17 -39 -1 32 43 79
48 86 65 11 24 -76 -41 -162 -69 -210 -68 l-41 1 53 16 c29 10 56 22 60 28 4
6 31 23 60 39 28 15 51 30 49 32 -2 1 -46 -6 -97 -17 -146 -31 -244 -24 -115
9 57 14 88 35 37 25 -51 -10 -37 3 28 27 33 12 63 26 66 30 3 5 -1 7 -8 5 -31
-10 -230 -38 -234 -33 -3 3 12 10 33 17 21 7 43 17 48 22 6 6 3 7 -10 2 -45
-16 2 16 54 36 50 19 104 50 89 50 -7 0 -201 -37 -230 -44 -35 -8 -17 11 31
34 28 13 52 28 55 35 2 7 25 22 51 34 26 12 45 25 42 28 -3 3 -54 -9 -114 -26
-59 -16 -128 -33 -153 -37 l-45 -6 30 21 c16 11 42 26 57 32 33 14 214 196
245 247 28 46 44 120 34 158 -7 27 -8 27 -21 -20 -16 -59 -80 -148 -146 -202
-64 -53 -156 -116 -161 -110 -3 3 21 37 52 76 60 73 68 96 21 59 -15 -12 -30
-19 -33 -16 -5 6 -18 -3 -51 -34 -21 -20 -62 -42 -62 -34 0 4 30 56 66 116 37
61 64 112 62 115 -3 2 -26 -23 -52 -56 -26 -33 -52 -60 -59 -60 -6 0 -21 -12
-34 -27 -18 -22 -22 -24 -23 -10 0 9 -5 17 -12 17 -6 0 -1 12 13 28 28 31 63
91 57 98 -3 2 -15 -15 -28 -38 -23 -41 -42 -40 -21 1 21 39 10 34 -44 -19 -30
-29 -57 -52 -59 -49 -3 2 6 36 19 74 24 69 25 95 1 62 -7 -9 -18 -17 -23 -17
-5 0 -16 -12 -24 -27 -15 -29 -59 -80 -59 -69 0 11 67 180 85 218 49 95 137
178 219 204 56 19 138 10 201 -21z m-4294 -26 c25 -13 59 -3 81 25 15 18 18
19 18 4 0 -26 -36 -58 -66 -58 -44 0 -115 47 -93 61 7 4 19 1 26 -7 8 -8 23
-19 34 -25z m5749 -1067 c0 -598 -2 -1102 -6 -1119 -9 -44 -22 -42 -27 5 -3
32 -5 34 -12 15 -9 -26 -20 -30 -29 -8 -3 8 -11 15 -18 15 -8 0 -21 9 -31 20
-9 11 -22 20 -28 20 -7 0 0 -12 15 -26 43 -44 29 -50 -18 -8 -58 51 -152 124
-159 124 -3 0 -4 -9 -2 -21 3 -17 -3 -14 -33 16 -88 84 -199 122 -309 105 -38
-6 -98 -8 -136 -5 -67 7 -68 8 -51 26 10 11 52 36 93 57 71 35 80 37 175 37
98 0 103 -1 189 -42 106 -51 144 -54 188 -15 29 26 32 35 40 118 5 49 6 351 3
672 l-6 582 66 0 66 0 0 81 0 82 -42 -7 c-91 -13 -82 -24 -86 100 l-4 111 73
81 c40 45 76 79 80 76 4 -2 8 -494 9 -1092z m-4622 1016 l62 -67 0 -126 0
-125 113 -1 c61 -1 126 -4 142 -8 l30 -7 -29 -8 c-17 -4 -26 -10 -20 -14 5 -4
10 -15 12 -24 3 -16 -8 -18 -105 -20 l-108 -2 95 -5 95 -6 -60 -7 c-71 -9
-179 -1 -183 12 -2 6 -9 7 -14 4 -7 -4 -8 -2 -4 4 4 7 19 12 34 13 23 0 19 4
-26 25 -29 14 -63 24 -75 22 -19 -3 -22 -9 -22 -53 l0 -50 62 -3 62 -3 3 -647
c3 -570 5 -651 19 -682 38 -84 77 -89 206 -27 87 41 90 42 193 42 94 -1 111
-4 161 -28 31 -15 71 -40 89 -56 l33 -27 -46 -14 c-41 -11 -54 -10 -103 5 -70
22 -160 16 -230 -14 -27 -12 -50 -22 -51 -22 -2 0 -21 -18 -44 -42 -24 -25
-36 -33 -29 -19 6 12 15 22 20 22 6 0 10 5 10 10 0 21 -39 -10 -82 -65 -47
-59 -59 -67 -50 -33 5 21 2 20 -38 -10 -24 -17 -48 -29 -53 -25 -6 3 -7 2 -4
-4 8 -13 -36 -55 -54 -51 -8 2 -18 8 -22 13 -5 6 -6 -3 -2 -20 6 -29 6 -30 -9
-8 -9 12 -13 29 -9 39 5 12 3 15 -6 9 -8 -4 -11 -20 -9 -36 4 -22 1 -29 -12
-29 -15 0 -18 18 -23 133 -9 170 -9 2001 -1 2010 3 3 18 -1 33 -10 l26 -17
-27 30 c-32 34 -50 98 -27 93 8 -2 42 -34 77 -71z m5019 -75 c-3 -10 -5 -4 -5
12 0 17 2 24 5 18 2 -7 2 -21 0 -30z m-5757 -18 c31 -28 24 -33 -32 -23 -29 6
-79 8 -110 5 -65 -6 -75 6 -25 29 44 20 140 14 167 -11z m6170 9 c22 -9 40
-20 40 -24 0 -4 -44 -7 -98 -6 -71 1 -104 -3 -116 -13 -9 -8 -19 -11 -23 -7
-8 8 27 46 52 57 33 13 102 10 145 -7z m-5896 -70 c3 -8 2 -12 -4 -9 -6 3 -10
10 -10 16 0 14 7 11 14 -7z m5463 -36 c-3 -7 -5 -2 -5 12 0 14 2 19 5 13 2 -7
2 -19 0 -25z m-5981 -17 c64 -29 92 -87 64 -131 -7 -12 -4 -16 18 -20 36 -7
69 -69 52 -100 -6 -11 -15 -20 -20 -20 -19 0 -79 -46 -75 -57 7 -19 -5 -43
-21 -43 -8 0 -14 -5 -14 -11 0 -7 -15 -10 -40 -7 -22 2 -41 -1 -43 -7 -2 -5
-10 -1 -17 11 -13 20 -14 20 -31 3 -28 -28 -65 -34 -94 -15 -31 20 -32 49 -3
78 19 19 19 21 2 13 -31 -13 -67 -6 -89 15 -28 29 -25 94 9 164 23 46 33 57
62 65 20 5 42 7 49 5 8 -3 19 5 26 18 32 63 85 75 165 39z m6641 -3 c11 -13
22 -29 25 -37 2 -8 20 -14 41 -16 23 -1 47 -11 62 -25 28 -27 55 -99 55 -149
0 -41 -34 -90 -65 -95 -11 -2 -20 -7 -20 -12 -1 -5 -4 -19 -9 -32 -6 -19 -14
-22 -47 -20 -21 2 -39 8 -39 13 0 6 -5 3 -10 -5 -8 -12 -12 -12 -18 -2 -7 11
-11 11 -20 0 -7 -8 -28 -13 -54 -11 -71 4 -88 11 -88 36 0 27 34 67 56 67 16
0 65 -28 76 -45 4 -5 8 3 8 18 0 24 3 27 20 22 10 -3 29 -1 40 5 20 11 21 12
4 25 -17 12 -16 13 4 19 25 8 30 26 7 26 -9 0 -25 16 -36 35 -22 37 -69 51
-69 20 0 -17 -16 -20 -25 -5 -12 20 -25 10 -19 -15 4 -18 1 -27 -10 -31 -13
-5 -14 -9 -5 -20 16 -19 5 -40 -30 -59 -28 -14 -34 -14 -68 2 -67 33 -65 110
5 145 19 9 29 19 23 23 -14 8 -14 51 1 78 22 43 70 64 144 66 30 1 46 -5 61
-21z m-5869 -100 c20 -20 13 -35 -18 -36 -35 -1 -47 13 -30 33 15 18 32 19 48
3z m4993 2 c31 -17 23 -37 -16 -36 -36 1 -44 13 -23 34 15 15 15 15 39 2z
m-231 -14 c0 -3 -21 -15 -46 -27 -60 -30 -63 -39 -17 -40 l38 -1 -45 -14 c-43
-14 -75 -14 -192 2 -45 6 -68 24 -31 24 15 0 14 2 -3 15 -10 8 -28 15 -39 15
-20 1 -20 1 -1 15 16 12 54 15 178 15 87 0 158 -2 158 -4z m30 -6 c0 -5 -2
-10 -4 -10 -3 0 -8 5 -11 10 -3 6 -1 10 4 10 6 0 11 -4 11 -10z m-2171 -25
c163 -39 333 -171 403 -315 95 -194 86 -415 -23 -595 -38 -63 -99 -136 -99
-119 0 6 9 19 20 29 27 24 99 150 105 183 5 25 4 25 -7 -3 -6 -16 -18 -36 -25
-44 -8 -8 -32 -37 -53 -66 -21 -28 -58 -70 -83 -91 l-45 -40 -1 -433 c0 -417
-1 -434 -21 -475 -11 -24 -35 -59 -53 -78 -17 -19 -25 -25 -16 -14 25 31 46
77 53 116 l7 35 -19 -40 c-37 -76 -137 -184 -212 -230 -65 -40 -70 -41 -70
-19 0 8 -4 12 -10 9 -21 -13 -31 7 -13 27 18 21 18 21 -12 6 -16 -9 -46 -19
-65 -22 l-35 -7 35 28 c51 40 224 213 246 248 18 28 19 50 16 460 -1 236 0
441 3 455 4 15 25 38 56 59 63 43 123 111 157 176 31 61 42 189 22 263 -15 55
-70 146 -109 181 -184 165 -442 157 -605 -20 -93 -100 -123 -241 -83 -380 22
-72 89 -164 158 -214 30 -22 57 -44 62 -50 4 -5 6 -57 5 -115 l-3 -105 -71 -3
c-81 -3 -84 0 -84 88 0 41 -4 49 -48 90 -54 50 -122 138 -153 196 -13 25 -18
30 -14 14 11 -46 40 -105 63 -130 37 -40 49 -70 14 -35 -103 101 -161 288
-142 458 18 154 72 261 191 371 150 139 363 197 558 151z m-2915 -115 c43 -9
51 -18 65 -69 6 -18 18 -42 27 -52 16 -18 16 -19 -4 -20 -12 -1 -26 -3 -32 -4
-5 -1 -30 -3 -55 -4 -34 -1 -45 -5 -45 -17 0 -12 -5 -11 -20 7 -10 13 -19 21
-20 18 0 -13 30 -78 40 -84 5 -3 10 -14 9 -23 0 -15 -1 -15 -8 1 -4 10 -10 18
-15 17 -19 -3 -91 125 -101 182 -6 34 -5 39 16 47 31 12 93 13 143 1z m5681 0
c23 -9 26 -14 20 -43 -10 -49 -57 -140 -66 -126 -4 7 0 23 8 36 24 36 7 40
-25 5 -27 -29 -31 -30 -72 -21 -23 5 -45 7 -48 5 -2 -3 -13 -1 -23 4 -12 7
-22 6 -31 -3 -15 -16 -61 -29 -52 -16 3 5 12 9 20 9 8 0 14 4 14 9 0 5 9 12
19 16 12 3 21 19 26 43 10 54 22 70 58 81 44 13 120 13 152 1z m-5008 -177 c4
-38 8 -141 8 -230 0 -138 -3 -165 -17 -179 -15 -15 -17 -11 -24 62 -15 147 -5
414 16 414 5 0 12 -30 17 -67z m4228 -208 c-4 -99 -7 -188 -7 -197 1 -30 -18
-20 -34 17 -22 54 -16 282 13 420 6 30 6 30 20 -15 11 -35 13 -84 8 -225z
m-85 230 c0 -10 -11 -15 -35 -15 -44 0 -46 17 -2 23 17 2 33 5 35 5 1 1 2 -5
2 -13z m-3877 -78 c37 -9 58 -8 95 3 115 33 181 21 242 -42 45 -46 70 -110 53
-136 -5 -10 -13 -16 -17 -14 -4 1 -13 -4 -21 -12 -9 -8 -24 -13 -35 -11 -11 2
-20 0 -20 -5 0 -5 -11 -7 -24 -4 -17 3 -25 -1 -28 -13 -3 -15 -4 -15 -20 1
-16 15 -18 15 -18 2 0 -9 -4 -16 -10 -16 -5 0 -10 5 -10 11 0 8 -5 8 -15 -1
-12 -10 -15 -10 -15 1 0 12 -2 12 -9 0 -7 -11 -11 -10 -20 5 -9 17 -10 17 -11
2 0 -25 -9 -22 -32 8 -14 17 -23 22 -28 14 -4 -6 -16 15 -29 49 -19 53 -50 91
-73 91 -30 0 28 -169 75 -217 31 -33 73 -52 155 -73 27 -7 57 -25 82 -50 l39
-39 -6 48 c-4 33 -1 57 10 77 19 37 91 104 112 104 9 0 21 -21 31 -57 18 -63
15 -214 -6 -286 l-11 -38 -20 25 c-20 25 -91 79 -137 103 -20 11 -21 10 -13
-5 8 -15 -2 -14 -72 9 -106 34 -137 41 -137 32 0 -5 23 -21 51 -36 65 -37 57
-46 -11 -12 -29 14 -54 24 -57 21 -9 -8 50 -107 85 -142 18 -18 68 -58 111
-88 43 -30 90 -69 105 -86 24 -30 66 -101 66 -115 0 -3 -24 19 -52 48 -29 29
-98 83 -153 119 -157 103 -202 163 -276 363 -31 85 -33 98 -33 220 0 150 4
170 37 160 12 -4 43 -12 70 -18z m3547 8 c55 -19 110 -19 160 1 23 9 44 14 47
10 10 -10 22 -97 22 -167 2 -155 -90 -388 -191 -486 -29 -28 -102 -83 -163
-122 -60 -39 -122 -88 -137 -108 -31 -41 -36 -37 -12 9 24 46 91 115 176 179
76 58 128 114 163 176 11 18 17 35 14 37 -3 3 -24 -2 -48 -10 -54 -18 -65 -12
-19 12 46 24 22 28 -64 11 -40 -8 -84 -14 -98 -13 -14 2 -30 -2 -36 -8 -7 -6
-35 -29 -63 -51 -28 -22 -51 -43 -51 -47 0 -5 -4 -8 -9 -8 -33 0 -47 255 -18
323 18 42 36 46 77 17 59 -42 85 -115 65 -181 -7 -22 -4 -21 27 9 26 24 61 41
131 63 107 33 133 54 163 136 9 26 23 55 31 64 15 18 17 48 5 67 -20 31 -70
-26 -91 -105 -11 -39 -31 -68 -31 -44 0 6 -14 4 -35 -5 -27 -11 -35 -11 -36
-2 0 10 -2 10 -6 0 -4 -10 -8 -10 -20 -1 -11 10 -16 10 -23 0 -6 -11 -9 -11
-13 0 -5 12 -7 12 -15 1 -7 -11 -10 -11 -15 2 -4 9 -13 13 -22 10 -8 -3 -15
-1 -15 5 0 6 -7 8 -15 5 -8 -4 -22 -1 -30 6 -8 6 -18 9 -24 6 -5 -4 -22 4 -37
17 -22 19 -25 28 -20 54 4 18 21 50 37 73 53 72 146 98 239 65z m-4673 -124
c128 -43 280 -159 338 -257 42 -71 67 -200 49 -248 -9 -24 -34 -1 -35 33 -1
25 -2 25 -9 -4 l-7 -30 -7 30 c-13 57 -49 160 -59 170 -6 7 -8 -11 -4 -50 6
-71 -16 -201 -26 -150 -21 110 -38 175 -51 205 l-16 35 5 -37 c3 -21 7 -53 10
-72 3 -19 1 -54 -5 -79 l-12 -44 -86 0 c-47 -1 -135 -6 -196 -13 -250 -27
-251 -27 -61 -29 99 -1 190 -4 203 -7 47 -13 18 -22 -90 -28 -159 -9 -308 -28
-308 -38 0 -4 92 -8 205 -8 130 0 205 -4 205 -10 0 -5 -7 -10 -15 -10 -33 0
-291 -31 -305 -37 -32 -13 39 -21 195 -23 l160 -2 -70 -14 c-38 -7 -104 -13
-145 -14 -92 -1 -77 -15 34 -32 93 -15 114 -39 24 -26 -228 31 -423 219 -436
422 -3 53 -1 74 9 83 18 14 269 37 319 28 31 -5 55 -22 117 -83 l78 -77 -40
-2 c-147 -9 -425 -51 -425 -65 0 -12 32 -10 156 8 68 9 165 15 259 13 83 -1
155 -1 162 0 21 2 24 39 8 103 -15 57 -53 144 -41 93 3 -11 8 -41 11 -66 10
-69 -10 -72 -40 -7 -14 29 -23 44 -21 33 2 -11 7 -33 11 -50 6 -26 -3 -21 -78
52 -72 69 -252 203 -273 203 -4 0 12 -17 37 -37 24 -21 57 -50 73 -64 l29 -26
-54 1 c-30 1 -99 -3 -153 -8 l-99 -8 6 46 c15 104 82 186 175 213 65 18 211
10 289 -16z m6239 -1 c59 -29 110 -89 128 -151 28 -93 29 -92 -71 -82 -49 4
-114 8 -146 8 -31 0 -57 3 -57 6 0 7 70 71 116 107 l29 22 -31 -15 c-44 -20
-161 -109 -230 -174 -42 -40 -59 -50 -65 -40 -6 10 -10 9 -15 -6 -4 -11 -19
-33 -33 -48 l-25 -28 -12 38 c-7 21 -12 30 -13 20 -1 -10 -5 -15 -11 -12 -5 3
-7 20 -3 38 4 21 2 29 -4 22 -19 -18 -36 -130 -24 -152 10 -20 18 -20 183 -16
111 2 218 -1 298 -10 69 -8 129 -11 133 -7 5 5 -4 11 -20 14 -49 10 -265 35
-360 42 -51 4 -93 10 -93 13 0 3 34 40 76 81 l76 75 116 -1 c109 -2 228 -16
241 -30 14 -14 3 -142 -18 -194 -41 -107 -147 -211 -271 -268 -67 -30 -187
-52 -175 -31 4 5 15 9 25 9 36 0 120 22 120 31 0 5 -19 9 -42 9 -24 1 -81 7
-128 14 l-85 14 145 2 c156 2 178 4 192 18 11 11 -95 28 -230 38 -51 4 -94 10
-97 14 -5 9 170 24 183 16 17 -10 204 -8 214 2 7 7 0 12 -23 16 -77 14 -287
36 -333 36 -38 0 -47 3 -38 12 13 13 202 17 337 6 66 -6 83 -5 65 3 -38 16
-271 42 -390 43 -58 1 -111 5 -118 10 -8 5 -12 1 -12 -10 0 -12 -3 -15 -10 -8
-5 5 -12 54 -16 108 -8 114 -19 104 -30 -24 -4 -44 -12 -87 -19 -96 -10 -14
-14 -8 -23 40 -6 32 -9 85 -6 119 6 58 5 61 -10 41 -8 -12 -18 -40 -22 -63 -4
-23 -11 -44 -15 -47 -5 -3 -9 -18 -9 -34 0 -16 -6 -33 -13 -37 -7 -4 -18 -19
-24 -33 -10 -25 -11 -24 -18 14 -19 96 22 234 96 323 75 92 223 179 350 208
85 20 207 12 265 -15z m-4485 -67 c13 -16 12 -17 -3 -4 -17 13 -22 21 -14 21
2 0 10 -8 17 -17z m70 -42 c15 -6 18 -10 8 -10 -9 -1 -25 7 -36 17 -10 9 -14
14 -8 10 6 -4 22 -12 36 -17z m229 -176 c0 -2 -20 -16 -45 -31 -25 -14 -45
-32 -45 -39 0 -8 -8 -19 -17 -25 -16 -10 -16 -11 2 -4 11 3 40 15 65 24 51 21
150 41 150 31 0 -4 -25 -17 -56 -31 -63 -27 -144 -78 -144 -90 0 -4 37 5 83
20 91 31 167 45 167 31 0 -5 -12 -12 -27 -16 -33 -8 -180 -79 -207 -100 -34
-26 -14 -24 84 4 52 16 115 31 140 35 40 5 32 -1 -75 -53 -66 -33 -112 -60
-103 -60 18 -1 168 32 203 45 13 4 7 -4 -15 -24 -19 -17 -43 -34 -53 -37 -9
-4 -15 -11 -12 -16 4 -5 2 -9 -2 -9 -15 0 -151 -135 -181 -180 -44 -67 -93
-181 -90 -210 2 -19 10 -26 31 -28 33 -4 42 14 27 52 -7 20 -6 36 6 64 34 81
77 132 216 248 79 65 154 129 168 142 35 31 44 27 23 -9 -21 -37 -113 -122
-200 -187 -57 -42 -76 -62 -55 -62 4 0 54 25 111 55 57 30 107 55 109 55 3 0
-5 -11 -18 -25 -13 -14 -20 -25 -16 -25 4 0 -7 -19 -25 -42 -18 -24 -37 -49
-43 -56 -14 -20 95 53 132 88 29 28 52 32 52 10 0 -4 -18 -31 -40 -59 -29 -36
-45 -49 -57 -45 -12 4 -14 3 -6 -3 9 -6 4 -17 -18 -41 -16 -18 -27 -32 -23
-32 20 0 140 89 174 129 22 25 40 40 40 33 0 -19 -29 -62 -82 -119 -74 -80
-59 -92 32 -24 l34 26 -22 -32 c-67 -96 -274 -177 -502 -198 -109 -10 -142 23
-173 174 -19 90 -10 118 40 127 19 4 53 3 76 0 32 -5 39 -4 30 5 -12 12 -115
16 -149 5 -18 -5 -22 -2 -28 25 -11 55 -6 192 8 247 17 64 67 150 113 194 38
37 53 33 22 -5 -26 -34 -21 -34 38 1 27 16 62 34 78 40 31 11 75 15 75 7z
m1909 -25 c35 -17 77 -40 93 -52 28 -19 29 -19 20 -2 -6 11 -20 28 -31 38 -32
29 -25 40 9 16 47 -33 108 -120 130 -185 21 -60 26 -150 14 -239 l-7 -47 -19
31 c-19 32 -70 60 -108 60 -31 0 -78 -27 -91 -53 -11 -21 -11 -21 7 -5 51 45
122 46 168 3 42 -39 34 -50 -33 -47 -33 2 -68 -1 -78 -7 -14 -8 -3 -10 48 -11
85 0 94 -9 86 -93 -12 -128 -55 -200 -125 -211 -36 -5 -218 25 -209 34 3 3
-15 6 -39 7 -29 1 -68 16 -121 44 -82 45 -183 124 -183 143 0 6 5 4 10 -4 6
-9 10 -10 10 -3 0 6 16 -3 36 -20 19 -18 39 -32 42 -32 4 0 13 -4 20 -9 30
-19 22 5 -12 34 -43 38 -111 121 -81 100 12 -8 47 -35 78 -59 32 -24 59 -42
62 -40 2 3 -16 27 -40 54 -25 28 -54 66 -66 85 -18 31 -14 29 35 -19 30 -30
59 -52 63 -48 4 5 -12 25 -35 45 -52 46 -55 64 -4 24 73 -57 89 -59 42 -3 -24
28 -40 54 -36 58 4 4 11 2 15 -5 4 -8 15 -14 23 -16 8 -1 27 -10 41 -19 15
-10 27 -15 27 -13 0 3 -27 24 -60 46 -33 22 -60 43 -60 47 0 3 7 0 15 -7 10
-8 15 -9 15 -1 0 6 24 -4 53 -23 73 -46 137 -78 149 -74 6 2 -10 17 -36 32
-53 31 -236 205 -236 225 0 7 19 -4 43 -24 23 -19 94 -78 158 -129 139 -113
178 -157 203 -228 11 -29 23 -59 29 -65 6 -9 6 -13 -2 -13 -8 0 -11 -11 -9
-27 2 -22 8 -28 28 -28 23 0 25 3 23 44 -3 60 -62 180 -118 240 -25 27 -93 89
-151 137 -57 48 -103 89 -101 90 2 2 48 -8 103 -21 54 -14 106 -24 114 -22 13
3 -110 68 -175 92 -13 5 -16 9 -7 12 18 7 134 -16 201 -39 30 -10 57 -18 60
-18 25 2 -139 90 -224 121 l-50 19 60 -6 c33 -3 87 -17 119 -29 32 -13 54 -19
47 -12 -6 6 -11 18 -11 27 0 10 -24 25 -70 43 -38 15 -74 27 -80 27 -5 0 -10
4 -10 8 0 13 139 -8 194 -29 l48 -18 -18 21 c-11 11 -41 33 -69 49 -42 24 -46
29 -25 29 14 0 54 -14 89 -30z m1091 -145 c0 -9 -72 -53 -83 -51 -7 1 -28 7
-47 13 -19 6 -48 15 -65 19 -23 7 -9 10 65 14 52 4 103 7 113 8 9 1 17 0 17
-3z m-3972 -10 c-11 -11 -147 -31 -167 -24 -47 18 -19 29 76 29 53 0 94 -2 91
-5z m3256 -177 c-47 -129 -70 -218 -78 -303 -10 -99 -17 -135 -27 -129 -5 3
-9 -3 -9 -13 0 -10 -7 -27 -15 -37 -14 -19 -15 -18 -15 15 0 116 61 422 111
553 l22 60 18 -37 c19 -36 19 -36 -7 -109z m-2729 88 c46 -109 141 -574 122
-593 -17 -16 -42 16 -50 63 -5 27 -20 103 -33 169 -14 66 -29 143 -35 170 -5
28 -14 59 -19 70 -28 60 -38 108 -28 131 15 33 26 30 43 -10z m-407 -152 c38
-11 25 -19 -60 -36 -53 -11 -113 -34 -170 -63 -48 -25 -88 -42 -88 -37 0 14
83 88 120 107 53 27 150 41 198 29z m3697 -29 c59 -28 154 -118 114 -108 -13
3 -42 19 -64 34 -47 32 -145 66 -217 75 -50 7 -54 19 -8 26 51 7 127 -4 175
-27z m-4335 -59 l0 -43 -73 -1 c-83 -1 -130 -18 -182 -63 -95 -83 -86 -174 20
-209 61 -21 75 -42 63 -98 -7 -31 -17 -46 -36 -56 -26 -13 -33 -12 -96 19 -65
33 -72 27 -21 -17 11 -10 15 -17 8 -18 -7 0 -29 14 -48 32 -29 24 -39 28 -45
18 -12 -20 -23 66 -19 153 7 131 83 246 195 293 58 25 92 32 167 33 l67 1 0
-44z m4963 29 c72 -19 122 -50 175 -110 48 -54 71 -115 79 -206 6 -70 -4 -151
-16 -131 -4 7 -17 -1 -37 -23 -17 -19 -28 -37 -25 -40 3 -4 -3 -3 -13 1 -18 7
-18 8 -1 21 31 22 13 23 -48 2 -86 -29 -118 -13 -130 64 -6 35 30 72 78 81 18
4 44 17 58 30 55 51 44 112 -32 175 -55 46 -94 59 -183 63 -68 3 -68 3 -74 35
-3 17 -3 36 1 42 9 16 101 13 168 -4z m-608 -45 c13 -6 15 -9 5 -9 -8 0 -22 4
-30 9 -18 12 -2 12 25 0z m-3868 -26 c-3 -3 -12 -4 -19 -1 -8 3 -5 6 6 6 11 1
17 -2 13 -5z m1817 -40 c9 -24 7 -107 -3 -123 -7 -10 -36 -14 -117 -15 l-109
-1 -3 64 c-2 35 -1 70 2 77 4 11 32 14 115 14 90 0 110 -3 115 -16z m-374 -18
c0 -2 -8 -10 -17 -17 -16 -13 -17 -12 -4 4 13 16 21 21 21 13z m-2935 -56 c3
-6 -1 -13 -10 -16 -19 -8 -30 0 -20 15 8 14 22 14 30 1z m6825 -11 c0 -5 -9
-9 -20 -9 -19 0 -26 11 -14 23 8 8 34 -3 34 -14z m-85 -54 c-40 -33 -127 -65
-175 -65 -63 0 -55 17 12 23 40 4 80 15 117 35 69 37 85 40 46 7z m-6509 -43
c38 -3 61 -9 57 -15 -10 -17 -130 -1 -180 25 -67 34 -65 53 2 22 34 -16 83
-29 121 -32z m6554 -15 c0 -16 -47 -44 -56 -34 -7 7 35 46 49 47 4 0 7 -6 7
-13z m-6735 -13 c14 -9 22 -20 19 -25 -6 -11 -64 17 -64 31 0 15 17 12 45 -6z
m1957 -73 c46 -50 79 -120 93 -194 10 -53 -7 -46 -39 16 -44 88 -169 196 -229
198 -17 0 -13 5 18 20 62 30 101 20 157 -40z m2936 42 c29 -12 33 -17 18 -21
-31 -7 -125 -71 -162 -110 -45 -48 -84 -114 -84 -143 0 -18 -3 -20 -12 -11
-31 31 39 211 101 260 61 47 82 51 139 25z m-2256 -23 c20 -6 59 -31 87 -56
59 -53 83 -110 100 -232 13 -101 26 -128 91 -182 55 -46 88 -101 96 -156 5
-40 11 -42 -92 27 -92 62 -128 105 -149 176 -9 32 -22 72 -29 88 -8 17 -19 47
-25 67 -23 72 -102 162 -171 194 -50 24 -55 37 -17 50 18 7 31 17 30 23 -4 14
30 14 79 1z m1503 0 c-3 -6 1 -13 10 -16 12 -5 13 -9 5 -14 -8 -5 -1 -10 20
-15 l33 -7 -54 -30 c-30 -16 -75 -49 -100 -75 -55 -54 -86 -133 -96 -249 -3
-41 -12 -82 -20 -92 -12 -15 -13 -13 -8 18 5 26 4 31 -4 20 -6 -8 -11 -24 -11
-36 0 -39 -20 -55 -163 -133 l-37 -21 15 30 c14 27 14 29 -2 23 -13 -5 -15 -2
-10 11 4 10 7 26 7 36 0 10 29 47 64 83 70 70 78 89 96 216 6 41 19 92 29 115
20 46 86 111 135 132 37 16 100 19 91 4z m-3960 -19 c59 -6 66 -8 41 -15 -30
-9 -120 6 -146 25 -12 8 -9 9 10 4 14 -4 57 -10 95 -14z m3083 -50 c2 -35 0
-67 -5 -72 -4 -4 -57 -9 -118 -10 l-110 -2 -3 54 c-6 102 -8 100 121 97 l112
-3 3 -64z m3352 63 c0 -24 -151 -46 -165 -24 -4 6 14 10 47 11 29 0 62 4 73 9
24 10 45 12 45 4z m-4961 -42 c-119 -52 -149 -70 -193 -111 l-49 -46 40 55
c58 81 155 135 217 121 16 -4 14 -7 -15 -19z m3476 -4 c43 -21 95 -67 127
-110 27 -38 11 -35 -37 7 -22 20 -77 54 -122 77 -45 24 -79 46 -76 51 7 11 60
-1 108 -25z m-2877 -17 c-13 -15 -25 -27 -27 -25 -8 7 -54 -50 -67 -83 -14
-31 -34 -45 -34 -23 0 13 35 79 52 100 20 24 71 59 86 60 9 0 5 -10 -10 -29z
m2243 -8 c45 -40 64 -73 71 -118 3 -16 3 -24 1 -17 -3 6 -9 12 -13 12 -5 0
-17 14 -26 32 -9 17 -37 53 -61 80 -55 58 -34 67 28 11z m-4248 -115 c133 -20
238 -76 347 -187 81 -83 120 -158 126 -243 4 -60 4 -62 -10 -33 -8 17 -19 41
-24 55 -10 22 -11 20 -11 -22 -1 -63 -17 -70 -23 -10 -3 26 -12 63 -21 82
l-15 35 -2 -75 c-3 -116 -15 -140 -23 -45 -4 44 -11 94 -16 110 -8 26 -9 21
-10 -35 -1 -46 -4 -61 -11 -50 -5 8 -10 29 -11 45 0 17 -5 39 -10 50 -7 15 -8
6 -6 -32 2 -29 1 -53 -2 -53 -4 0 -20 27 -35 60 -16 33 -30 59 -32 57 -2 -2 5
-30 16 -62 l20 -58 -54 49 c-106 96 -231 199 -216 177 8 -12 39 -49 68 -82
l53 -60 -30 4 c-17 2 -33 -1 -36 -6 -4 -5 9 -9 27 -9 32 0 78 -23 78 -38 0 -4
-30 -8 -68 -9 -37 0 -74 -2 -82 -3 -22 -3 30 -18 65 -19 17 -1 48 -6 70 -12
34 -10 37 -13 20 -20 -11 -4 -44 -8 -72 -8 -29 -1 -53 -5 -53 -10 0 -9 37 -17
120 -25 19 -2 40 -5 45 -6 20 -5 -81 -19 -145 -20 -55 -1 -61 -3 -40 -11 14
-6 58 -13 98 -16 39 -3 72 -10 72 -14 0 -4 -35 -9 -77 -11 -105 -4 -109 -24
-6 -33 128 -11 142 -23 28 -25 l-100 -1 40 -19 c22 -10 60 -23 85 -28 l45 -10
-62 -1 c-57 -1 -66 2 -100 32 -97 85 -150 166 -180 278 -18 69 -24 284 -10
351 l8 38 47 -6 c26 -3 77 -10 115 -16z m6370 -19 c5 -19 7 -99 4 -179 -6
-203 -41 -295 -154 -406 -42 -41 -68 -58 -110 -70 -30 -9 -57 -13 -60 -10 -4
3 2 6 13 6 16 0 17 2 4 10 -11 7 -5 10 25 11 22 1 43 1 47 1 3 -1 8 5 11 12 4
10 -11 16 -56 22 l-62 8 68 10 c37 6 69 16 70 21 1 6 -28 14 -65 19 -38 4 -68
12 -68 16 0 4 32 10 70 13 39 3 76 9 82 13 18 11 -24 22 -89 23 -105 2 -110
31 -5 31 37 0 78 3 91 7 23 6 23 7 5 14 -10 4 -47 8 -81 8 -35 1 -63 5 -63 11
0 11 64 30 103 30 15 0 27 5 27 10 0 6 -26 10 -57 10 -53 0 -56 1 -41 16 9 9
37 19 63 22 36 4 43 7 31 14 -9 5 -25 6 -36 3 -31 -10 -24 5 30 68 28 32 50
61 50 63 0 12 -41 -19 -86 -65 -54 -55 -69 -63 -59 -28 7 22 7 22 -9 2 -8 -11
-16 -25 -16 -31 0 -7 -9 -22 -20 -35 l-19 -24 -2 40 -1 40 -8 -35 c-4 -19 -13
-48 -21 -65 -13 -29 -14 -29 -19 40 -4 39 -7 66 -8 60 -1 -5 -7 -39 -12 -75
-6 -36 -14 -74 -17 -85 -6 -19 -7 -18 -14 5 -4 14 -8 50 -8 80 -2 83 -18 97
-27 22 -3 -34 -11 -62 -15 -62 -5 0 -9 -19 -10 -42 -2 -69 -17 -7 -19 77 l-1
70 -19 -55 c-10 -30 -19 -65 -19 -77 -1 -35 -21 -38 -21 -4 0 38 -18 41 -26 4
-10 -47 -12 -49 -13 -12 -1 20 8 61 18 92 53 154 220 298 396 342 60 15 191
34 210 30 5 -1 13 -17 18 -36z m-4643 -38 c62 -43 83 -177 38 -237 -32 -42
-58 -67 -58 -55 0 6 -8 8 -17 4 -15 -5 -14 -1 4 18 13 14 25 40 29 59 l6 35
-20 -24 c-11 -14 -27 -26 -35 -27 -9 -1 -29 -11 -44 -22 -57 -40 -93 -46 -148
-24 -62 24 -73 44 -16 30 44 -11 112 0 118 19 4 10 -3 10 -26 2 -29 -10 -111
-7 -131 6 -5 3 -10 0 -10 -7 -1 -15 -29 32 -30 49 0 6 24 17 54 23 69 14 98
37 124 98 12 27 27 54 34 59 32 26 86 24 128 -6z m2858 18 c28 -9 62 -58 62
-87 0 -25 53 -72 88 -78 20 -4 45 -11 55 -16 31 -16 16 -79 -23 -90 -14 -4
-66 7 -130 27 -22 7 -23 6 -11 -9 17 -21 3 -21 -53 -1 -22 8 -43 12 -47 10 -3
-3 -14 4 -24 15 -43 48 -42 4 2 -63 13 -22 23 -41 20 -43 -2 -2 -24 16 -49 41
-83 82 -85 200 -6 271 38 35 66 41 116 23z m-3110 -25 c28 -19 30 -69 3 -84
-29 -15 -55 -12 -84 10 -29 23 -55 17 -61 -14 -13 -61 -13 -84 0 -128 29 -94
92 -140 197 -140 51 0 52 -1 17 -10 -56 -16 -129 -2 -178 32 -48 33 -47 27 5
-37 19 -24 32 -43 29 -43 -13 0 -76 35 -76 42 0 4 -5 8 -12 8 -6 0 -22 10 -36
22 l-23 23 10 -28 c6 -16 16 -38 23 -50 10 -20 10 -21 -5 -8 -14 11 -17 11
-17 0 0 -7 -14 0 -31 17 l-31 29 15 -31 c28 -56 -9 -55 -43 1 -25 40 -27 117
-4 136 17 14 68 17 100 6 l21 -7 -18 52 c-24 70 -23 95 4 148 38 75 124 99
195 54z m3410 -1 c13 -8 33 -35 44 -60 23 -53 20 -114 -10 -173 l-17 -35 35
18 c61 31 110 7 110 -55 0 -38 -25 -107 -39 -109 -3 0 -14 -2 -23 -4 -11 -2
-15 2 -11 12 5 13 1 12 -22 -3 l-28 -18 8 23 c5 16 4 21 -4 17 -6 -4 -11 0
-11 10 0 13 -3 14 -15 4 -8 -6 -20 -8 -26 -4 -7 4 -9 3 -6 -3 4 -6 0 -13 -8
-16 -10 -4 -12 -1 -8 11 6 15 5 15 -10 3 -10 -8 -20 -11 -24 -8 -3 4 6 16 20
28 40 31 32 40 -15 19 -50 -22 -107 -29 -163 -19 -39 6 -38 6 15 8 107 2 177
59 199 161 15 71 -3 124 -44 128 -21 2 -26 0 -16 -6 18 -13 -2 -24 -26 -15
-10 3 -21 11 -25 17 -5 7 -8 6 -8 -3 0 -10 -3 -11 -14 -2 -11 9 -15 9 -19 -1
-3 -7 -6 1 -6 17 -1 39 8 51 49 69 38 17 81 13 118 -11z m-3692 -16 c4 -4 2
-13 -5 -20 -13 -13 -122 -16 -323 -7 -107 5 -118 7 -118 24 0 18 10 18 220 14
120 -2 222 -7 226 -11z m4255 -154 c-2 -169 -13 -269 -32 -287 -8 -8 -9 -1 -5
24 3 19 8 65 11 103 7 67 6 67 -19 67 -32 0 -39 -13 -39 -69 0 -31 -3 -39 -8
-26 -7 18 -8 18 -8 2 -1 -11 -6 -15 -12 -11 -7 4 -10 1 -7 -7 3 -8 -1 -20 -9
-27 -7 -7 -13 -26 -13 -42 0 -17 -11 -40 -30 -61 -17 -17 -29 -38 -26 -46 3
-8 1 -11 -4 -8 -6 3 -11 1 -11 -4 -1 -6 -2 -17 -3 -23 0 -7 -8 -13 -16 -13
-16 0 -63 -29 -95 -58 -11 -11 -31 -23 -45 -29 -20 -7 -22 -11 -10 -19 12 -8
10 -9 -6 -4 -12 3 -32 1 -45 -5 -23 -10 -23 -10 -1 -6 12 2 20 0 16 -5 -3 -5
-14 -9 -24 -9 -10 0 -22 -4 -25 -10 -3 -5 -12 -10 -18 -10 -7 0 -3 7 7 15 24
18 13 20 -17 3 -12 -6 -40 -11 -62 -10 -34 1 -36 0 -15 -8 34 -11 -167 -12
-1944 -11 -1261 2 -1536 4 -1620 16 -56 8 -107 15 -115 15 -8 0 -11 3 -8 6 4
4 -25 23 -65 43 -84 43 -150 99 -209 180 -24 33 -47 57 -51 55 -4 -3 -8 3 -8
13 0 15 -2 16 -10 3 -5 -8 -10 -10 -10 -5 0 6 4 16 9 24 7 11 11 10 20 -5 9
-17 10 -17 11 -2 0 9 -4 20 -10 23 -5 3 -10 17 -10 31 0 13 -4 24 -9 24 -6 0
-11 17 -13 38 -3 33 -6 37 -32 40 l-29 4 6 -103 c4 -81 3 -99 -6 -84 -8 13
-12 83 -13 195 -1 96 0 158 3 137 l4 -38 62 2 62 3 7 -88 c4 -48 14 -112 22
-142 40 -153 185 -289 344 -323 38 -8 554 -11 1840 -11 1956 0 1831 -4 1951
60 69 37 159 128 193 193 29 58 48 132 48 193 0 28 3 66 6 84 l7 32 58 -4 59
-3 0 69 0 68 -32 -6 c-95 -19 -194 -27 -282 -22 -103 6 -143 20 -90 31 16 4
34 8 39 10 6 2 95 3 198 2 l189 -2 -1 -162z m-3173 136 c2 -9 -23 -31 -69 -59
-39 -25 -86 -57 -104 -72 -32 -27 -65 -37 -65 -19 0 20 88 103 145 136 62 37
88 41 93 14z m736 -11 c9 -35 7 -106 -3 -112 -5 -3 -58 -7 -118 -8 l-108 -3
-3 49 c-6 97 -7 96 117 96 104 0 109 -1 115 -22z m999 1 c51 -26 166 -141 148
-147 -17 -6 -242 148 -235 159 9 15 43 10 87 -12z m-3389 -95 c28 -11 17 -32
-19 -36 -28 -3 -35 -1 -35 13 0 24 25 34 54 23z m5011 -19 c0 -13 -8 -21 -24
-23 -28 -4 -46 11 -37 33 9 25 61 16 61 -10z m-4595 -71 l0 -64 -40 0 c-45 0
-56 14 -46 55 6 22 9 24 27 14 22 -11 49 -6 49 11 0 5 -16 10 -35 10 -30 0
-35 3 -35 23 0 20 4 22 40 19 l40 -4 0 -64z m4150 66 c-11 -7 -4 -10 28 -10
31 0 42 -4 42 -15 0 -10 -12 -16 -37 -17 l-38 -1 38 -4 c37 -4 38 -5 35 -41
-3 -37 -3 -37 -52 -40 -42 -3 -48 -1 -42 13 3 9 6 41 6 71 0 45 3 54 18 54 14
0 15 -2 2 -10z m-3231 -20 c198 -51 451 -235 534 -389 16 -28 26 -51 24 -51
-2 0 -55 50 -118 110 -168 162 -236 205 -441 277 -81 29 -108 42 -108 56 0 22
17 21 109 -3z m2396 -4 c0 -15 -17 -24 -79 -42 -171 -51 -414 -200 -482 -296
-35 -49 -94 -105 -94 -88 1 24 54 102 116 169 97 105 273 213 414 255 97 29
125 29 125 2z m-1755 -132 c0 -10 -36 16 -60 42 -23 26 -22 25 18 -5 23 -18
42 -35 42 -37z m-1550 -1 c1 -33 38 -102 81 -148 62 -67 146 -107 236 -113
102 -7 162 24 240 119 49 62 79 89 97 89 8 0 -41 -89 -70 -128 -36 -46 -121
-99 -190 -117 -51 -13 -64 -13 -153 5 -55 10 -120 31 -153 48 -31 16 -59 27
-62 25 -21 -22 -126 176 -113 212 5 12 22 17 75 24 6 0 12 -7 12 -16z m4197
-27 c-9 -55 -45 -129 -58 -120 -8 4 -9 3 -5 -4 4 -6 -3 -26 -16 -43 -26 -36
-97 -91 -108 -84 -5 3 -10 -1 -13 -9 -3 -7 -20 -19 -39 -25 l-33 -11 34 30
c18 16 48 35 67 42 19 6 34 16 34 20 0 4 5 8 11 8 12 0 48 40 49 55 0 5 -7 -1
-16 -13 -15 -22 -39 -35 -178 -96 -144 -64 -322 -11 -414 123 -22 32 -43 68
-47 81 -7 21 -6 21 19 5 14 -10 48 -45 75 -80 66 -84 119 -110 221 -110 58 1
86 6 124 25 75 36 160 121 187 185 23 55 23 55 67 55 l45 0 -6 -34z m-3271 16
c-3 -5 -7 -20 -10 -35 -3 -15 -12 -34 -20 -42 -8 -9 -40 -57 -70 -108 -76
-127 -79 -130 -71 -82 13 84 129 275 166 275 6 0 8 -4 5 -8z m2305 -24 c57
-60 134 -204 123 -232 -7 -19 -26 3 -91 104 -20 30 -51 73 -69 96 -19 23 -34
44 -34 48 0 15 51 4 71 -16z m-3391 -146 c0 -15 -2 -15 -10 -2 -13 20 -13 33
0 25 6 -3 10 -14 10 -23z m1339 18 c-9 -5 -49 -21 -89 -36 -85 -30 -167 -81
-176 -107 -3 -10 -8 -17 -10 -14 -9 9 19 63 49 96 47 49 100 71 177 70 45 0
60 -2 49 -9z m1899 -6 c45 -18 89 -58 108 -99 l15 -30 -21 25 c-21 24 -21 24
-15 3 8 -29 -6 -29 -31 -2 -21 24 -149 89 -174 89 -9 0 -25 7 -36 15 -17 13
-13 14 49 15 39 0 83 -7 105 -16z m-2994 -96 c-3 -5 0 -8 7 -8 7 0 9 -3 6 -7
-4 -3 -16 3 -27 15 -12 12 -25 22 -30 22 -6 0 -10 4 -10 10 0 5 13 2 29 -8 16
-9 27 -20 25 -24z m4101 -157 c-3 -6 -11 -11 -16 -11 -5 0 -4 6 3 14 14 16 24
13 13 -3z m-4679 -101 c27 -30 40 -48 29 -40 -31 24 -95 93 -95 104 0 6 3 6 8
1 5 -6 31 -35 58 -65z m5135 42 c-5 -9 -19 -26 -32 -37 -17 -15 -15 -10 7 17
32 41 40 48 25 20z"/>
<path d="M2818 9223 c6 -2 18 -2 25 0 6 3 1 5 -13 5 -14 0 -19 -2 -12 -5z"/>
<path d="M3031 9221 c-8 -5 5 -7 35 -4 27 3 51 7 53 9 9 8 -75 3 -88 -5z"/>
<path d="M3298 9223 c12 -2 32 -2 45 0 12 2 2 4 -23 4 -25 0 -35 -2 -22 -4z"/>
<path d="M6178 9213 c12 -2 32 -2 45 0 12 2 2 4 -23 4 -25 0 -35 -2 -22 -4z"/>
<path d="M3323 9203 c9 -2 23 -2 30 0 6 3 -1 5 -18 5 -16 0 -22 -2 -12 -5z"/>
<path d="M4150 8093 c-23 -23 -28 -32 -14 -25 17 9 62 62 52 62 -2 0 -19 -17
-38 -37z"/>
<path d="M4078 8008 c-38 -47 -52 -68 -45 -68 3 0 23 25 46 55 49 65 48 73 -1
13z"/>
<path d="M3807 7125 c-15 -160 -16 -150 21 -153 30 -3 32 -1 32 28 0 17 -6 41
-12 53 -7 12 -18 51 -23 87 l-11 65 -7 -80z"/>
<path d="M6520 8700 c-11 -11 -20 -25 -20 -30 0 -17 47 -60 65 -60 16 0 65 43
65 57 -1 22 -44 53 -74 53 -9 0 -25 -9 -36 -20z"/>
<path d="M3803 8705 c-51 -36 -4 -110 55 -89 34 12 52 58 31 78 -23 24 -62 28
-86 11z"/>
<path d="M3316 8500 c-21 -4 -41 -12 -45 -18 -9 -15 -1 -92 9 -92 5 0 18 -16
30 -35 l22 -35 20 25 c24 31 35 31 67 3 l24 -23 -21 36 c-27 45 -28 69 -1 97
l20 23 -35 -4 c-30 -4 -36 -1 -36 14 0 11 -3 18 -7 18 -5 -1 -25 -5 -47 -9z"/>
<path d="M7030 8496 c0 -23 -3 -26 -25 -22 -29 5 -30 3 -9 -28 13 -21 13 -26
1 -37 -7 -7 -12 -23 -9 -35 4 -20 7 -21 29 -11 23 10 28 9 41 -11 19 -29 28
-28 40 8 8 23 15 28 29 23 16 -6 16 -5 4 10 -12 15 -11 17 10 17 18 0 20 3 11
12 -7 7 -12 22 -12 34 0 30 -38 58 -57 42 -10 -8 -18 -6 -33 7 -19 18 -20 17
-20 -9z"/>
<path d="M5167 7138 c5 -10 52 -9 78 1 13 6 3 8 -31 7 -29 -1 -50 -4 -47 -8z"/>
<path d="M6338 6533 c12 -2 32 -2 45 0 12 2 2 4 -23 4 -25 0 -35 -2 -22 -4z"/>
<path d="M8430 6049 c0 -5 9 -9 20 -9 11 0 20 2 20 4 0 2 -9 6 -20 9 -11 3
-20 1 -20 -4z"/>
<path d="M5538 6033 c12 -2 32 -2 45 0 12 2 2 4 -23 4 -25 0 -35 -2 -22 -4z"/>
<path d="M5648 6033 c17 -2 47 -2 65 0 17 2 3 4 -33 4 -36 0 -50 -2 -32 -4z"/>
<path d="M5728 6013 c6 -2 18 -2 25 0 6 3 1 5 -13 5 -14 0 -19 -2 -12 -5z"/>
<path d="M3433 5424 c-54 -27 -126 -114 -109 -132 3 -3 6 0 6 6 0 18 70 91
104 110 17 9 60 19 96 23 l65 6 -65 1 c-42 1 -77 -4 -97 -14z"/>
<path d="M6880 5430 c30 -4 70 -14 87 -24 44 -22 103 -75 113 -100 7 -17 9
-18 9 -4 1 26 -64 94 -113 117 -28 14 -60 21 -97 20 l-54 -2 55 -7z"/>
<path d="M6875 5029 c-22 -10 -33 -19 -24 -19 16 0 79 28 79 36 0 7 -14 3 -55
-17z"/>
<path d="M6125 4806 c-28 -18 -70 -45 -93 -60 -73 -46 -38 -42 43 5 72 41 113
74 104 84 -3 2 -27 -11 -54 -29z"/>
<path d="M7527 5253 c-4 -3 -7 -11 -7 -17 0 -6 5 -5 12 2 6 6 9 14 7 17 -3 3
-9 2 -12 -2z"/>
<path d="M2887 4983 c-17 -16 -3 -23 43 -23 38 0 50 4 50 15 0 11 -11 15 -43
15 -24 0 -47 -3 -50 -7z"/>
<path d="M1820 4895 c0 -18 -10 -31 -32 -45 -18 -11 -26 -20 -18 -20 8 0 21
-4 29 -9 12 -8 12 -13 3 -24 -10 -12 -9 -16 4 -21 9 -3 19 -4 24 -1 4 3 13 -2
20 -10 17 -21 36 -19 53 6 13 18 18 19 39 9 19 -10 21 -10 11 1 -18 18 -16 37
5 42 15 4 15 5 -2 6 -14 1 -17 6 -13 23 4 15 -1 30 -15 45 -17 18 -24 20 -39
10 -15 -9 -24 -9 -39 1 -27 17 -30 16 -30 -13z"/>
<path d="M5232 2748 c-19 -19 -14 -29 8 -16 20 13 27 28 12 28 -4 0 -13 -5
-20 -12z"/>
<path d="M1950 4080 l-45 -7 45 -1 c25 0 56 4 70 8 l25 8 -25 0 c-14 -1 -45
-4 -70 -8z"/>
<path d="M8415 4080 c120 -18 151 -20 133 -9 -10 5 -57 12 -105 14 -83 4 -84
4 -28 -5z"/>
<path d="M4025 3753 c-34 -18 -45 -31 -45 -53 1 -12 3 -11 11 3 14 24 62 47
98 47 20 0 43 -11 67 -32 29 -26 36 -28 33 -13 -6 27 -66 65 -103 65 -17 -1
-44 -8 -61 -17z"/>
<path d="M4133 3595 c-3 -9 -3 -18 -1 -21 3 -3 8 4 11 16 6 23 -1 27 -10 5z"/>
<path d="M6174 4045 c11 -8 24 -15 30 -15 5 0 1 7 -10 15 -10 8 -23 14 -29 14
-5 0 -1 -6 9 -14z"/>
<path d="M7815 3230 c3 -5 8 -10 11 -10 2 0 4 5 4 10 0 6 -5 10 -11 10 -5 0
-7 -4 -4 -10z"/>
<path d="M3645 2810 l-30 -8 32 -1 c17 0 35 4 38 9 7 11 3 11 -40 0z"/>
<path d="M2870 2844 c0 -24 2 -25 48 -22 40 3 47 6 50 26 3 20 0 22 -47 22
-48 0 -51 -2 -51 -26z"/>
<path d="M7423 2855 c-8 -22 1 -28 57 -35 50 -6 50 -6 50 22 0 27 -2 28 -50
28 -36 0 -52 -4 -57 -15z"/>
<path d="M7315 2503 l-17 -28 23 22 c12 12 20 25 17 28 -3 3 -13 -7 -23 -22z"/>
<path d="M9198 7294 c-2 -186 -4 -1180 -6 -2209 -2 -1221 -6 -1901 -13 -1960
-32 -275 -145 -562 -317 -810 -123 -175 -345 -390 -517 -500 -241 -154 -559
-266 -810 -286 -73 -6 -1015 -8 -2415 -7 -2186 3 -2300 4 -2390 22 -273 53
-591 200 -818 378 -201 157 -396 394 -506 615 -99 198 -152 362 -176 540 -11
86 -15 628 -21 2858 -2 786 -5 1115 -9 925 -12 -515 -11 -3763 1 -3890 6 -63
19 -159 30 -215 43 -222 50 -261 53 -280 1 -12 5 -26 9 -32 4 -6 9 -29 12 -51
3 -22 12 -53 20 -68 8 -16 15 -37 15 -46 0 -9 5 -20 10 -23 6 -3 10 -15 10
-26 0 -10 4 -27 9 -37 5 -9 24 -48 43 -87 18 -38 45 -91 59 -116 15 -25 30
-56 34 -68 4 -13 25 -48 46 -79 21 -30 39 -61 39 -69 0 -7 3 -13 8 -13 4 0 28
-27 52 -61 25 -34 57 -73 73 -89 15 -15 27 -33 27 -40 0 -7 3 -11 6 -8 6 7 37
-23 83 -80 18 -23 39 -42 47 -42 8 0 14 -7 14 -15 0 -8 6 -15 14 -15 8 0 26
-14 39 -30 14 -17 30 -30 35 -30 5 0 26 -13 47 -30 20 -16 46 -32 58 -36 12
-4 24 -10 27 -14 6 -9 178 -90 191 -90 5 0 9 -4 9 -10 0 -5 8 -10 18 -10 10 0
35 -9 57 -20 22 -11 50 -20 62 -20 13 0 23 -4 23 -9 0 -5 12 -11 28 -14 117
-22 199 -40 207 -47 10 -8 69 -18 155 -25 25 -2 83 -9 130 -14 47 -5 110 -10
140 -10 30 0 56 -4 57 -8 2 -4 199 -8 438 -8 239 0 435 -4 435 -8 0 -5 6 -5
12 -1 7 5 713 9 1568 10 1373 1 1574 3 1715 18 176 18 394 54 411 68 6 4 19 6
28 2 9 -3 16 -1 16 5 0 6 11 11 25 11 29 0 185 51 241 78 22 11 62 31 89 45
28 15 69 36 93 48 23 12 42 24 42 28 0 4 20 15 45 26 27 12 43 25 40 33 -2 6
1 12 7 12 21 0 178 128 178 145 0 3 16 19 35 36 19 17 51 54 72 82 20 29 40
54 43 57 3 3 19 23 35 45 17 22 36 44 42 48 7 4 13 17 13 27 0 10 5 22 11 25
5 4 14 17 20 28 5 12 13 29 18 37 37 59 91 164 91 176 0 8 5 14 10 14 6 0 10
4 10 10 0 5 11 33 24 63 40 86 57 138 71 214 8 40 24 94 36 120 11 27 23 66
26 88 2 22 11 74 19 115 33 173 44 253 54 395 9 136 3 4533 -6 4544 -2 2 -5
-149 -6 -335z"/>
</g>
</svg>
